<svg width="327" height="328" viewBox="0 0 327 328" fill="none" xmlns="http://www.w3.org/2000/svg">
<rect x="0.695312" y="0.598145" width="325.665" height="325.665" rx="162.832" fill="url(#paint0_radial_65_8121)" fill-opacity="0.1"/>
<rect x="1.43616" y="1.33899" width="324.183" height="324.183" rx="162.091" stroke="#D0EBFF" stroke-opacity="0.1" stroke-width="1.4817"/>
<rect x="39.2188" y="39.1221" width="248.925" height="248.925" rx="124.463" fill="url(#paint1_radial_65_8121)" fill-opacity="0.25"/>
<rect x="39.5892" y="39.4925" width="248.184" height="248.184" rx="124.092" stroke="#D0EBFF" stroke-opacity="0.49" stroke-width="0.740848"/>
<rect x="89.5977" y="89.4995" width="148.17" height="148.17" rx="74.0849" fill="url(#paint2_radial_65_8121)" fill-opacity="0.2"/>
<rect x="89.9681" y="89.8699" width="147.429" height="147.429" rx="73.7144" stroke="#D0EBFF" stroke-opacity="0.5" stroke-width="0.740848"/>
<g filter="url(#filter0_d_65_8121)">
<rect x="130.344" y="130.246" width="66.6764" height="66.6764" rx="33.3382" fill="white"/>
<rect x="130.344" y="130.246" width="66.6764" height="66.6764" rx="33.3382" stroke="#E5E5E7" stroke-width="0.740848"/>
<g clip-path="url(#clip0_65_8121)">
<path d="M163.683 148.767C171.866 148.767 178.5 155.401 178.5 163.584V173.956C178.5 175.135 178.032 176.265 177.198 177.099C176.364 177.933 175.234 178.401 174.055 178.401H164.424V171.901C164.424 170.418 164.514 168.881 165.292 167.619C165.849 166.714 166.594 165.94 167.477 165.348C168.359 164.757 169.358 164.362 170.407 164.191L170.691 164.145C170.808 164.105 170.909 164.029 170.981 163.929C171.053 163.828 171.092 163.708 171.092 163.584C171.092 163.46 171.053 163.34 170.981 163.239C170.909 163.139 170.808 163.063 170.691 163.023L170.407 162.977C168.875 162.727 167.46 162.002 166.363 160.904C165.265 159.807 164.54 158.392 164.29 156.86L164.244 156.576C164.204 156.459 164.128 156.358 164.028 156.286C163.927 156.214 163.807 156.175 163.683 156.175C163.559 156.175 163.439 156.214 163.338 156.286C163.238 156.358 163.162 156.459 163.122 156.576L163.076 156.86C162.905 157.909 162.51 158.908 161.919 159.791C161.327 160.673 160.553 161.418 159.648 161.975C158.386 162.753 156.849 162.843 155.366 162.843H148.884C149.271 155.004 155.748 148.767 163.683 148.767Z" fill="#1866FF"/>
<path d="M148.865 164.325H155.365C156.849 164.325 158.385 164.415 159.648 165.193C160.634 165.801 161.465 166.632 162.073 167.619C162.851 168.881 162.941 170.418 162.941 171.901V178.401H153.31C152.131 178.401 151.001 177.933 150.167 177.099C149.334 176.265 148.865 175.135 148.865 173.956V164.325ZM178.499 150.249C178.499 150.642 178.343 151.019 178.065 151.297C177.787 151.574 177.41 151.73 177.017 151.73C176.625 151.73 176.248 151.574 175.97 151.297C175.692 151.019 175.536 150.642 175.536 150.249C175.536 149.856 175.692 149.479 175.97 149.201C176.248 148.923 176.625 148.767 177.017 148.767C177.41 148.767 177.787 148.923 178.065 149.201C178.343 149.479 178.499 149.856 178.499 150.249Z" fill="#1866FF"/>
</g>
</g>
<g filter="url(#filter1_d_65_8121)">
<rect x="179.239" y="194.699" width="66.6764" height="66.6764" rx="33.3382" fill="white"/>
<rect x="179.239" y="194.699" width="66.6764" height="66.6764" rx="33.3382" stroke="#E5E5E7" stroke-width="0.740848"/>
<g clip-path="url(#clip1_65_8121)">
<path d="M224.035 222.554C223.656 222.426 223.275 222.308 222.89 222.199C222.955 221.94 223.014 221.684 223.067 221.432C223.934 217.3 223.367 213.971 221.432 212.874C219.577 211.824 216.543 212.919 213.479 215.539C213.177 215.798 212.882 216.064 212.594 216.337C212.401 216.156 212.204 215.977 212.005 215.803C208.793 213.002 205.574 211.821 203.642 212.92C201.788 213.974 201.239 217.104 202.019 221.02C202.097 221.408 202.185 221.794 202.282 222.178C201.827 222.305 201.387 222.44 200.966 222.584C197.201 223.874 194.797 225.895 194.797 227.991C194.797 230.157 197.378 232.328 201.299 233.645C201.617 233.751 201.938 233.85 202.261 233.941C202.156 234.354 202.063 234.769 201.982 235.188C201.238 239.036 201.819 242.092 203.667 243.139C205.576 244.221 208.781 243.109 211.901 240.43C212.154 240.212 212.401 239.988 212.643 239.758C212.955 240.054 213.276 240.341 213.604 240.62C216.626 243.175 219.611 244.206 221.458 243.156C223.365 242.071 223.985 238.788 223.18 234.795C223.117 234.482 223.046 234.17 222.967 233.861C223.192 233.795 223.413 233.728 223.628 233.658C227.705 232.331 230.358 230.186 230.358 227.991C230.358 225.887 227.876 223.853 224.035 222.554ZM223.151 232.241C222.956 232.304 222.757 232.365 222.553 232.425C222.103 231.025 221.496 229.537 220.753 227.999C221.462 226.498 222.046 225.028 222.483 223.637C222.847 223.741 223.2 223.85 223.541 223.965C226.831 225.078 228.838 226.724 228.838 227.991C228.838 229.342 226.671 231.095 223.151 232.241ZM221.69 235.084C222.046 236.85 222.097 238.447 221.861 239.695C221.649 240.817 221.223 241.565 220.697 241.864C219.576 242.502 217.18 241.673 214.595 239.488C214.289 239.229 213.991 238.962 213.701 238.687C214.703 237.61 215.704 236.359 216.682 234.969C218.401 234.819 220.025 234.574 221.498 234.239C221.57 234.527 221.635 234.809 221.69 235.084ZM206.92 241.754C205.825 242.134 204.953 242.145 204.426 241.846C203.305 241.211 202.838 238.757 203.474 235.466C203.55 235.077 203.636 234.69 203.734 234.306C205.19 234.623 206.803 234.85 208.526 234.988C209.51 236.348 210.54 237.598 211.579 238.693C211.358 238.903 211.132 239.107 210.901 239.306C209.521 240.491 208.139 241.331 206.92 241.754ZM201.791 232.233C200.057 231.651 198.625 230.894 197.643 230.068C196.761 229.326 196.316 228.589 196.316 227.991C196.316 226.719 198.247 225.097 201.466 223.994C201.857 223.86 202.266 223.734 202.69 223.615C203.135 225.037 203.719 226.524 204.424 228.028C203.71 229.554 203.118 231.064 202.669 232.503C202.374 232.42 202.081 232.33 201.791 232.233ZM203.51 220.734C202.842 217.378 203.286 214.847 204.403 214.212C205.592 213.535 208.223 214.5 210.996 216.919C211.177 217.077 211.355 217.238 211.529 217.403C210.496 218.493 209.475 219.734 208.5 221.086C206.828 221.238 205.227 221.483 203.755 221.81C203.664 221.454 203.583 221.095 203.51 220.734ZM218.85 224.455C218.502 223.865 218.141 223.283 217.768 222.708C218.903 222.849 219.99 223.036 221.011 223.265C220.704 224.23 220.322 225.239 219.873 226.273C219.544 225.661 219.203 225.054 218.85 224.455ZM212.594 218.469C213.295 219.215 213.997 220.048 214.687 220.951C213.287 220.886 211.884 220.886 210.484 220.95C211.175 220.055 211.883 219.224 212.594 218.469ZM206.299 224.465C205.95 225.06 205.615 225.662 205.295 226.272C204.853 225.241 204.474 224.228 204.165 223.249C205.18 223.026 206.262 222.843 207.389 222.705C207.012 223.283 206.648 223.87 206.299 224.465ZM207.421 233.384C206.257 233.256 205.158 233.083 204.144 232.866C204.458 231.87 204.845 230.835 205.297 229.782C205.618 230.392 205.954 230.995 206.305 231.59C206.665 232.201 207.038 232.8 207.421 233.384ZM212.636 237.619C211.916 236.856 211.198 236.011 210.497 235.103C211.178 235.129 211.872 235.143 212.577 235.143C213.302 235.143 214.019 235.127 214.724 235.096C214.031 236.02 213.332 236.866 212.636 237.619ZM219.887 229.728C220.362 230.793 220.763 231.823 221.081 232.802C220.05 233.033 218.937 233.219 217.764 233.357C218.14 232.772 218.504 232.179 218.856 231.58C219.213 230.97 219.557 230.353 219.887 229.728ZM217.54 230.834C217.001 231.753 216.432 232.655 215.834 233.538C214.75 233.614 213.664 233.651 212.577 233.65C211.471 233.65 210.394 233.617 209.358 233.551C208.744 232.67 208.164 231.766 207.619 230.842C207.078 229.923 206.572 228.984 206.102 228.027C206.57 227.07 207.075 226.131 207.615 225.211L207.615 225.211C208.155 224.291 208.73 223.391 209.339 222.514C210.397 222.435 211.481 222.394 212.577 222.394C213.678 222.394 214.764 222.436 215.821 222.515C216.424 223.391 216.996 224.287 217.535 225.203C218.077 226.121 218.588 227.055 219.068 228.006C218.593 228.966 218.083 229.909 217.54 230.834ZM220.674 214.167C221.864 214.842 222.327 217.563 221.579 221.131C221.531 221.359 221.478 221.591 221.419 221.826C219.944 221.491 218.342 221.242 216.665 221.088C215.688 219.721 214.675 218.478 213.659 217.402C213.925 217.15 214.198 216.904 214.477 216.665C217.102 214.42 219.556 213.534 220.674 214.167ZM212.577 224.872C214.331 224.872 215.753 226.269 215.753 227.991C215.753 229.714 214.331 231.111 212.577 231.111C210.824 231.111 209.402 229.714 209.402 227.991C209.402 226.269 210.824 224.872 212.577 224.872Z" fill="#00D8FF"/>
</g>
</g>
<g filter="url(#filter2_d_65_8121)">
<rect x="148.865" y="15.4141" width="66.6764" height="66.6764" rx="33.3382" fill="white"/>
<rect x="148.865" y="15.4141" width="66.6764" height="66.6764" rx="33.3382" stroke="#E5E5E7" stroke-width="0.740848"/>
<g clip-path="url(#clip2_65_8121)">
<path d="M185.675 30.2314L167.386 48.6942L173.058 54.3032L196.904 30.2314H185.675ZM185.56 47.1751L175.72 57.1077L181.392 62.9503L187.065 57.2245L196.904 47.1751H185.56Z" fill="#47C5FB"/>
<path d="M181.392 62.9504L185.675 67.274H196.903L187.064 57.2246L181.392 62.9504Z" fill="#00569E"/>
<path d="M175.72 57.1075L181.276 51.4985L187.064 57.2243L181.392 62.9501L175.72 57.1075Z" fill="#00B5F8"/>
<path d="M181.392 62.9498L186.138 61.3139L186.601 57.6914L181.392 62.9498Z" fill="url(#paint3_linear_65_8121)" fill-opacity="0.8"/>
</g>
</g>
<g filter="url(#filter3_d_65_8121)">
<rect x="254.806" y="111.725" width="66.6764" height="66.6764" rx="33.3382" fill="white"/>
<rect x="254.806" y="111.725" width="66.6764" height="66.6764" rx="33.3382" stroke="#E5E5E7" stroke-width="0.740848"/>
<g clip-path="url(#clip3_65_8121)">
<mask id="mask0_65_8121" style="mask-type:alpha" maskUnits="userSpaceOnUse" x="270" y="127" width="36" height="36">
<path d="M288.143 162.842C297.962 162.842 305.923 154.882 305.923 145.062C305.923 135.242 297.962 127.282 288.143 127.282C278.323 127.282 270.362 135.242 270.362 145.062C270.362 154.882 278.323 162.842 288.143 162.842Z" fill="black"/>
</mask>
<g mask="url(#mask0_65_8121)">
<path d="M288.143 162.25C297.635 162.25 305.33 154.555 305.33 145.062C305.33 135.57 297.635 127.875 288.143 127.875C278.65 127.875 270.955 135.57 270.955 145.062C270.955 154.555 278.65 162.25 288.143 162.25Z" fill="black" stroke="white" stroke-width="4.44509"/>
<path d="M299.899 158.402L284.022 137.95H281.03V152.169H283.423V140.989L298.02 159.849C298.679 159.408 299.306 158.924 299.899 158.402Z" fill="url(#paint4_linear_65_8121)"/>
<path d="M295.452 137.95H293.081V152.174H295.452V137.95Z" fill="url(#paint5_linear_65_8121)"/>
</g>
</g>
</g>
<g filter="url(#filter4_d_65_8121)">
<rect x="14.7715" y="73.2007" width="66.6764" height="66.6764" rx="33.3382" fill="white"/>
<rect x="14.7715" y="73.2007" width="66.6764" height="66.6764" rx="33.3382" stroke="#E5E5E7" stroke-width="0.740848"/>
<g clip-path="url(#clip4_65_8121)">
<mask id="mask1_65_8121" style="mask-type:luminance" maskUnits="userSpaceOnUse" x="33" y="91" width="30" height="31">
<path d="M33.292 91.7222H62.9259V121.356H33.292V91.7222Z" fill="white"/>
</mask>
<g mask="url(#mask1_65_8121)">
<mask id="mask2_65_8121" style="mask-type:luminance" maskUnits="userSpaceOnUse" x="33" y="91" width="30" height="31">
<path d="M33.291 91.7222H62.925V121.356H33.291V91.7222Z" fill="white"/>
</mask>
<g mask="url(#mask2_65_8121)">
<path d="M62.8025 96.6997L61.7004 112.443L51.5367 91.7222L62.8025 96.6997ZM55.7002 117.073L48.108 121.24L40.3934 117.073L41.8628 113.485H54.2307L55.7002 117.073ZM48.108 99.5937L52.0265 108.854H44.067L48.108 99.5937ZM34.3931 112.443L33.291 96.6997L44.5568 91.7222L34.3931 112.443Z" fill="url(#paint6_linear_65_8121)"/>
<path d="M62.8025 96.6997L61.7004 112.443L51.5367 91.7222L62.8025 96.6997ZM55.7002 117.073L48.108 121.24L40.3934 117.073L41.8628 113.485H54.2307L55.7002 117.073ZM48.108 99.5937L52.0265 108.854H44.067L48.108 99.5937ZM34.3931 112.443L33.291 96.6997L44.5568 91.7222L34.3931 112.443Z" fill="url(#paint7_linear_65_8121)"/>
</g>
</g>
</g>
</g>
<g filter="url(#filter5_d_65_8121)">
<rect x="39.2178" y="204.331" width="66.6764" height="66.6764" rx="33.3382" fill="white"/>
<rect x="39.2178" y="204.331" width="66.6764" height="66.6764" rx="33.3382" stroke="#E5E5E7" stroke-width="0.740848"/>
<g clip-path="url(#clip5_65_8121)">
<path d="M81.4464 225.075H87.3732L72.5562 250.634L57.7393 225.075H69.0742L72.5562 231.001L75.9641 225.075H81.4464Z" fill="#41B883"/>
<path d="M57.7393 225.075L72.5562 250.634L87.3732 225.075H81.4464L72.5562 240.41L63.592 225.075H57.7393Z" fill="#41B883"/>
<path d="M63.5928 225.075L72.557 240.484L81.4472 225.075H75.9649L72.557 231.001L69.0751 225.075H63.5928Z" fill="#35495E"/>
</g>
</g>
<rect width="317.947" height="240.776" transform="translate(5.3252 86.2583)" fill="url(#paint8_linear_65_8121)" fill-opacity="0.33"/>
<defs>
<filter id="filter0_d_65_8121" x="125.529" y="126.912" width="76.3072" height="76.3077" filterUnits="userSpaceOnUse" color-interpolation-filters="sRGB">
<feFlood flood-opacity="0" result="BackgroundImageFix"/>
<feColorMatrix in="SourceAlpha" type="matrix" values="0 0 0 0 0 0 0 0 0 0 0 0 0 0 0 0 0 0 127 0" result="hardAlpha"/>
<feOffset dy="1.4817"/>
<feGaussianBlur stdDeviation="2.22255"/>
<feComposite in2="hardAlpha" operator="out"/>
<feColorMatrix type="matrix" values="0 0 0 0 0.413867 0 0 0 0 0.413867 0 0 0 0 0.413867 0 0 0 0.12 0"/>
<feBlend mode="normal" in2="BackgroundImageFix" result="effect1_dropShadow_65_8121"/>
<feBlend mode="normal" in="SourceGraphic" in2="effect1_dropShadow_65_8121" result="shape"/>
</filter>
<filter id="filter1_d_65_8121" x="174.424" y="191.365" width="76.3072" height="76.3077" filterUnits="userSpaceOnUse" color-interpolation-filters="sRGB">
<feFlood flood-opacity="0" result="BackgroundImageFix"/>
<feColorMatrix in="SourceAlpha" type="matrix" values="0 0 0 0 0 0 0 0 0 0 0 0 0 0 0 0 0 0 127 0" result="hardAlpha"/>
<feOffset dy="1.4817"/>
<feGaussianBlur stdDeviation="2.22255"/>
<feComposite in2="hardAlpha" operator="out"/>
<feColorMatrix type="matrix" values="0 0 0 0 0.413867 0 0 0 0 0.413867 0 0 0 0 0.413867 0 0 0 0.12 0"/>
<feBlend mode="normal" in2="BackgroundImageFix" result="effect1_dropShadow_65_8121"/>
<feBlend mode="normal" in="SourceGraphic" in2="effect1_dropShadow_65_8121" result="shape"/>
</filter>
<filter id="filter2_d_65_8121" x="144.05" y="12.0801" width="76.3072" height="76.3077" filterUnits="userSpaceOnUse" color-interpolation-filters="sRGB">
<feFlood flood-opacity="0" result="BackgroundImageFix"/>
<feColorMatrix in="SourceAlpha" type="matrix" values="0 0 0 0 0 0 0 0 0 0 0 0 0 0 0 0 0 0 127 0" result="hardAlpha"/>
<feOffset dy="1.4817"/>
<feGaussianBlur stdDeviation="2.22255"/>
<feComposite in2="hardAlpha" operator="out"/>
<feColorMatrix type="matrix" values="0 0 0 0 0.413867 0 0 0 0 0.413867 0 0 0 0 0.413867 0 0 0 0.12 0"/>
<feBlend mode="normal" in2="BackgroundImageFix" result="effect1_dropShadow_65_8121"/>
<feBlend mode="normal" in="SourceGraphic" in2="effect1_dropShadow_65_8121" result="shape"/>
</filter>
<filter id="filter3_d_65_8121" x="249.99" y="108.391" width="76.3072" height="76.3077" filterUnits="userSpaceOnUse" color-interpolation-filters="sRGB">
<feFlood flood-opacity="0" result="BackgroundImageFix"/>
<feColorMatrix in="SourceAlpha" type="matrix" values="0 0 0 0 0 0 0 0 0 0 0 0 0 0 0 0 0 0 127 0" result="hardAlpha"/>
<feOffset dy="1.4817"/>
<feGaussianBlur stdDeviation="2.22255"/>
<feComposite in2="hardAlpha" operator="out"/>
<feColorMatrix type="matrix" values="0 0 0 0 0.413867 0 0 0 0 0.413867 0 0 0 0 0.413867 0 0 0 0.12 0"/>
<feBlend mode="normal" in2="BackgroundImageFix" result="effect1_dropShadow_65_8121"/>
<feBlend mode="normal" in="SourceGraphic" in2="effect1_dropShadow_65_8121" result="shape"/>
</filter>
<filter id="filter4_d_65_8121" x="9.95628" y="69.8667" width="76.3072" height="76.3077" filterUnits="userSpaceOnUse" color-interpolation-filters="sRGB">
<feFlood flood-opacity="0" result="BackgroundImageFix"/>
<feColorMatrix in="SourceAlpha" type="matrix" values="0 0 0 0 0 0 0 0 0 0 0 0 0 0 0 0 0 0 127 0" result="hardAlpha"/>
<feOffset dy="1.4817"/>
<feGaussianBlur stdDeviation="2.22255"/>
<feComposite in2="hardAlpha" operator="out"/>
<feColorMatrix type="matrix" values="0 0 0 0 0.413867 0 0 0 0 0.413867 0 0 0 0 0.413867 0 0 0 0.12 0"/>
<feBlend mode="normal" in2="BackgroundImageFix" result="effect1_dropShadow_65_8121"/>
<feBlend mode="normal" in="SourceGraphic" in2="effect1_dropShadow_65_8121" result="shape"/>
</filter>
<filter id="filter5_d_65_8121" x="34.4026" y="200.997" width="76.3072" height="76.3077" filterUnits="userSpaceOnUse" color-interpolation-filters="sRGB">
<feFlood flood-opacity="0" result="BackgroundImageFix"/>
<feColorMatrix in="SourceAlpha" type="matrix" values="0 0 0 0 0 0 0 0 0 0 0 0 0 0 0 0 0 0 127 0" result="hardAlpha"/>
<feOffset dy="1.4817"/>
<feGaussianBlur stdDeviation="2.22255"/>
<feComposite in2="hardAlpha" operator="out"/>
<feColorMatrix type="matrix" values="0 0 0 0 0.413867 0 0 0 0 0.413867 0 0 0 0 0.413867 0 0 0 0.12 0"/>
<feBlend mode="normal" in2="BackgroundImageFix" result="effect1_dropShadow_65_8121"/>
<feBlend mode="normal" in="SourceGraphic" in2="effect1_dropShadow_65_8121" result="shape"/>
</filter>
<radialGradient id="paint0_radial_65_8121" cx="0" cy="0" r="1" gradientUnits="userSpaceOnUse" gradientTransform="translate(163.528 163.43) rotate(180) scale(156.319)">
<stop stop-color="white" stop-opacity="0"/>
<stop offset="1" stop-color="#CBE3FC" stop-opacity="0.5"/>
</radialGradient>
<radialGradient id="paint1_radial_65_8121" cx="0" cy="0" r="1" gradientUnits="userSpaceOnUse" gradientTransform="translate(163.681 163.585) rotate(180) scale(119.484)">
<stop stop-color="white" stop-opacity="0"/>
<stop offset="1" stop-color="#CBE3FC" stop-opacity="0.5"/>
</radialGradient>
<radialGradient id="paint2_radial_65_8121" cx="0" cy="0" r="1" gradientUnits="userSpaceOnUse" gradientTransform="translate(163.683 163.584) rotate(180) scale(71.1215)">
<stop stop-color="white" stop-opacity="0"/>
<stop offset="1" stop-color="#CBE3FC" stop-opacity="0.5"/>
</radialGradient>
<linearGradient id="paint3_linear_65_8121" x1="202.228" y1="199.668" x2="577.566" y2="333.606" gradientUnits="userSpaceOnUse">
<stop/>
<stop offset="1" stop-opacity="0"/>
</linearGradient>
<linearGradient id="paint4_linear_65_8121" x1="291.896" y1="150.298" x2="298.909" y2="158.99" gradientUnits="userSpaceOnUse">
<stop stop-color="white"/>
<stop offset="1" stop-color="white" stop-opacity="0"/>
</linearGradient>
<linearGradient id="paint5_linear_65_8121" x1="294.266" y1="137.95" x2="294.227" y2="148.396" gradientUnits="userSpaceOnUse">
<stop stop-color="white"/>
<stop offset="1" stop-color="white" stop-opacity="0"/>
</linearGradient>
<linearGradient id="paint6_linear_65_8121" x1="39.8056" y1="118.566" x2="62.7878" y2="107.006" gradientUnits="userSpaceOnUse">
<stop stop-color="#E40035"/>
<stop offset="0.2" stop-color="#F60A48"/>
<stop offset="0.4" stop-color="#F20755"/>
<stop offset="0.5" stop-color="#DC087D"/>
<stop offset="0.7" stop-color="#9717E7"/>
<stop offset="1" stop-color="#6C00F5"/>
</linearGradient>
<linearGradient id="paint7_linear_65_8121" x1="38.7402" y1="95.2759" x2="53.1382" y2="112.667" gradientUnits="userSpaceOnUse">
<stop stop-color="#FF31D9"/>
<stop offset="1" stop-color="#FF5BE1" stop-opacity="0"/>
</linearGradient>
<linearGradient id="paint8_linear_65_8121" x1="158.974" y1="0" x2="158.974" y2="240.776" gradientUnits="userSpaceOnUse">
<stop stop-color="white" stop-opacity="0"/>
<stop offset="0.50082" stop-color="white" stop-opacity="0.75"/>
<stop offset="1" stop-color="white"/>
</linearGradient>
<clipPath id="clip0_65_8121">
<rect width="29.6339" height="29.6339" fill="white" transform="translate(148.865 148.767)"/>
</clipPath>
<clipPath id="clip1_65_8121">
<rect width="35.5607" height="31.1156" fill="white" transform="translate(194.797 212.479)"/>
</clipPath>
<clipPath id="clip2_65_8121">
<rect width="29.6339" height="37.0424" fill="white" transform="translate(167.386 30.231)"/>
</clipPath>
<clipPath id="clip3_65_8121">
<rect width="35.5607" height="35.5607" fill="white" transform="translate(270.364 127.283)"/>
</clipPath>
<clipPath id="clip4_65_8121">
<rect width="29.6339" height="29.6339" fill="white" transform="translate(33.292 91.7217)"/>
</clipPath>
<clipPath id="clip5_65_8121">
<rect width="29.6339" height="25.5824" fill="white" transform="translate(57.7393 225.075)"/>
</clipPath>
</defs>
</svg>
