<svg width="332" height="251" viewBox="0 0 332 251" fill="none" xmlns="http://www.w3.org/2000/svg">
<g clip-path="url(#clip0_72_9172)">
<g filter="url(#filter0_d_72_9172)">
<rect x="151.958" y="54.2168" width="93.9044" height="65.8477" rx="6.87106" fill="white"/>
</g>
<g filter="url(#filter1_d_72_9172)">
<rect x="151.958" y="54.2168" width="93.9044" height="65.8477" rx="6.87106" fill="white"/>
</g>
<rect width="18.3228" height="1.71777" rx="0.858883" transform="matrix(1 0 0 -1 156.539 60.5161)" fill="#F1F3F6"/>
<rect x="156.539" y="61.6611" width="6.87105" height="6.87106" rx="2.29035" fill="#F1F6FD"/>
<rect x="164.556" y="61.6611" width="6.87105" height="6.87106" rx="2.29035" fill="#DEEBFB"/>
<rect x="172.571" y="61.6611" width="6.87105" height="6.87106" rx="2.29035" fill="#C5DDF8"/>
<rect x="180.588" y="61.6611" width="6.87105" height="6.87106" rx="2.29035" fill="#C5DDF8"/>
<rect x="188.604" y="61.6611" width="6.87105" height="6.87106" rx="2.29035" fill="#9DC8F3"/>
<rect x="196.62" y="61.6611" width="6.87105" height="6.87106" rx="2.29035" fill="#6FA9EB"/>
<rect x="204.637" y="61.6611" width="6.87105" height="6.87106" rx="2.29035" fill="#4D89E4"/>
<rect width="18.3228" height="1.71777" rx="0.858883" transform="matrix(1 0 0 -1 156.539 74.8311)" fill="#F1F3F6"/>
<rect x="156.539" y="75.9761" width="6.87105" height="6.87106" rx="2.29035" fill="#FDF6F3"/>
<rect x="164.556" y="75.9761" width="6.87105" height="6.87106" rx="2.29035" fill="#FDEAE3"/>
<rect x="172.571" y="75.9761" width="6.87105" height="6.87106" rx="2.29035" fill="#FCD8CC"/>
<rect x="180.588" y="75.9761" width="6.87105" height="6.87106" rx="2.29035" fill="#F8BDA9"/>
<rect x="188.604" y="75.9761" width="6.87105" height="6.87106" rx="2.29035" fill="#F39D80"/>
<rect x="196.62" y="75.9761" width="6.87105" height="6.87106" rx="2.29035" fill="#E8734B"/>
<rect x="204.637" y="75.9761" width="6.87105" height="6.87106" rx="2.29035" fill="#D4582E"/>
<rect width="18.3228" height="1.71777" rx="0.858883" transform="matrix(1 0 0 -1 156.539 89.1455)" fill="#F1F3F6"/>
<rect x="156.539" y="90.2905" width="6.87105" height="6.87106" rx="2.29035" fill="#FDF6FD"/>
<rect x="164.556" y="90.2905" width="6.87105" height="6.87106" rx="2.29035" fill="#FAECFB"/>
<rect x="172.571" y="90.2905" width="6.87105" height="6.87106" rx="2.29035" fill="#F4D8F6"/>
<rect x="180.588" y="90.2905" width="6.87105" height="6.87106" rx="2.29035" fill="#EEB9EE"/>
<rect x="188.604" y="90.2905" width="6.87105" height="6.87106" rx="2.29035" fill="#E698E5"/>
<rect x="196.62" y="90.2905" width="6.87105" height="6.87106" rx="2.29035" fill="#D362D2"/>
<rect x="204.637" y="90.2905" width="6.87105" height="6.87106" rx="2.29035" fill="#B643B2"/>
</g>
<g filter="url(#filter2_d_72_9172)">
<rect width="89.1867" height="19.4944" rx="5.84831" transform="matrix(1 0 0 -1 232.47 72.1289)" fill="white"/>
<rect x="0.487359" y="-0.487359" width="88.2119" height="18.5197" rx="5.36095" transform="matrix(1 0 0 -1 232.47 71.1542)" stroke="#F39D80" stroke-width="0.974719"/>
<rect x="238.318" y="58.4829" width="58.9704" height="7.79776" rx="3.89887" fill="#FDF6F3"/>
</g>
<path d="M39.4756 133.049C39.4756 136.279 42.094 138.897 45.3239 138.897H64.8182C68.0482 138.897 70.6665 136.279 70.6665 133.049V133.049C70.6665 129.819 68.0482 127.201 64.8182 127.201H45.3239C42.094 127.201 39.4756 129.819 39.4756 133.049V133.049Z" fill="#FCD8CC" fill-opacity="0.31"/>
<path d="M73.5908 130.125L75.9981 132.532C76.2835 132.818 76.2835 133.281 75.9981 133.566L73.5908 135.973" stroke="#FCD8CC" stroke-width="1.09656" stroke-linecap="round"/>
<path d="M79.4395 133.049C79.4395 136.279 82.0578 138.897 85.2878 138.897H104.782C108.012 138.897 110.63 136.279 110.63 133.049V133.049C110.63 129.819 108.012 127.201 104.782 127.201H85.2878C82.0578 127.201 79.4395 129.819 79.4395 133.049V133.049Z" fill="#FCD8CC"/>
<path d="M113.554 130.125L115.961 132.532C116.246 132.818 116.246 133.281 115.961 133.566L113.554 135.973" stroke="#FCD8CC" stroke-width="1.09656" stroke-linecap="round"/>
<path d="M119.402 133.049C119.402 136.279 122.021 138.897 125.251 138.897H144.745C147.975 138.897 150.593 136.279 150.593 133.049V133.049C150.593 129.819 147.975 127.201 144.745 127.201H125.251C122.021 127.201 119.402 129.819 119.402 133.049V133.049Z" fill="#F39D80"/>
<g filter="url(#filter3_d_72_9172)">
<rect width="58.4831" height="13.6461" rx="5.84831" transform="matrix(1 0 0 -1 48.7354 180.811)" fill="white"/>
<rect x="0.374892" y="-0.374892" width="57.7333" height="12.8963" rx="5.47342" transform="matrix(1 0 0 -1 48.7354 180.061)" stroke="#F39D80" stroke-width="0.749783"/>
<rect x="52.6338" y="171.063" width="34.1151" height="5.84832" rx="2.92416" fill="#FDF6F3"/>
</g>
<g filter="url(#filter4_d_72_9172)">
<mask id="path-39-inside-1_72_9172" fill="white">
<path d="M48.7354 223.426C48.7354 226.656 51.3537 229.274 54.5837 229.274H101.37C104.6 229.274 107.218 226.656 107.218 223.426V190.557C107.218 187.327 104.6 184.709 101.37 184.709H54.5837C51.3537 184.709 48.7354 187.327 48.7354 190.557V223.426Z"/>
</mask>
<path d="M48.7354 223.426C48.7354 226.656 51.3537 229.274 54.5837 229.274H101.37C104.6 229.274 107.218 226.656 107.218 223.426V190.557C107.218 187.327 104.6 184.709 101.37 184.709H54.5837C51.3537 184.709 48.7354 187.327 48.7354 190.557V223.426Z" fill="#F39D80"/>
<path d="M48.7354 223.426C48.7354 227.277 51.8573 230.399 55.7083 230.399H100.245C104.097 230.399 107.218 227.277 107.218 223.426V223.426C107.218 226.035 104.6 228.15 101.37 228.15H54.5837C51.3537 228.15 48.7354 226.035 48.7354 223.426V223.426ZM107.218 184.709H48.7354H107.218ZM48.7354 184.709V229.274V184.709ZM107.218 229.274V184.709V229.274Z" fill="#E8734B" mask="url(#path-39-inside-1_72_9172)"/>
<rect x="52.5596" y="221.852" width="4.49867" height="4.49868" rx="2.24933" fill="#F8BDA9"/>
<rect x="60.4326" y="221.852" width="4.49867" height="4.49868" rx="2.24933" fill="#F8BDA9"/>
<rect x="68.3047" y="221.852" width="4.49867" height="4.49868" rx="2.24933" fill="#F8BDA9"/>
<rect x="76.1777" y="221.852" width="4.49867" height="4.49868" rx="2.24933" fill="#F8BDA9"/>
<rect x="84.0498" y="221.852" width="4.49867" height="4.49868" rx="2.24933" fill="#F8BDA9"/>
<rect x="91.9229" y="221.852" width="4.49867" height="4.49868" rx="2.24933" fill="#F8BDA9"/>
<rect x="99.7959" y="221.852" width="4.49867" height="4.49868" rx="2.24933" fill="#F8BDA9"/>
<rect x="52.5596" y="214.916" width="4.49867" height="4.49868" rx="2.24933" fill="#F8BDA9"/>
<rect x="60.4326" y="214.916" width="4.49867" height="4.49868" rx="2.24933" fill="#F8BDA9"/>
<rect x="68.3047" y="214.916" width="4.49867" height="4.49868" rx="2.24933" fill="#F8BDA9"/>
<rect x="76.1777" y="214.916" width="4.49867" height="4.49868" rx="2.24933" fill="#F8BDA9"/>
<rect x="84.0498" y="214.916" width="4.49867" height="4.49868" rx="2.24933" fill="#F8BDA9"/>
<rect x="91.9229" y="214.916" width="4.49867" height="4.49868" rx="2.24933" fill="#F8BDA9"/>
<rect x="99.7959" y="214.916" width="4.49867" height="4.49868" rx="2.24933" fill="#F8BDA9"/>
<rect x="52.5596" y="207.98" width="4.49867" height="4.49868" rx="2.24933" fill="#F8BDA9"/>
<rect x="60.4326" y="207.98" width="4.49867" height="4.49868" rx="2.24933" fill="#F8BDA9"/>
<rect x="68.3047" y="207.98" width="4.49867" height="4.49868" rx="2.24933" fill="#F8BDA9"/>
<rect x="76.1777" y="207.98" width="4.49867" height="4.49868" rx="2.24933" fill="#F8BDA9"/>
<rect x="84.0498" y="207.98" width="4.49867" height="4.49868" rx="2.24933" fill="#FDF6F3"/>
<rect x="91.9229" y="207.98" width="4.49867" height="4.49868" rx="2.24933" fill="#F8BDA9"/>
<rect x="99.7959" y="207.98" width="4.49867" height="4.49868" rx="2.24933" fill="#F8BDA9"/>
<rect x="52.5596" y="201.045" width="4.49867" height="4.49868" rx="2.24933" fill="#F8BDA9"/>
<rect x="60.4326" y="201.045" width="4.49867" height="4.49868" rx="2.24933" fill="#F8BDA9"/>
<rect x="68.3047" y="201.045" width="4.49867" height="4.49868" rx="2.24933" fill="#F8BDA9"/>
<rect x="76.1777" y="201.045" width="4.49867" height="4.49868" rx="2.24933" fill="#F8BDA9"/>
<rect x="84.0498" y="201.045" width="4.49867" height="4.49868" rx="2.24933" fill="#F8BDA9"/>
<rect x="91.9229" y="201.045" width="4.49867" height="4.49868" rx="2.24933" fill="#F8BDA9"/>
<rect x="99.7959" y="201.045" width="4.49867" height="4.49868" rx="2.24933" fill="#F8BDA9"/>
<rect x="52.1465" y="194.456" width="6.61416" height="4.15263" rx="2.07631" fill="#FCD8CC"/>
<rect x="59.7354" y="194.456" width="6.61416" height="4.15263" rx="2.07631" fill="#FCD8CC"/>
<rect x="67.3242" y="194.456" width="6.61416" height="4.15263" rx="2.07631" fill="#FCD8CC"/>
<rect x="74.9131" y="194.456" width="6.61416" height="4.15263" rx="2.07631" fill="#FCD8CC"/>
<rect x="82.502" y="194.456" width="6.61416" height="4.15263" rx="2.07631" fill="#FCD8CC"/>
<rect x="90.0908" y="194.456" width="6.61416" height="4.15263" rx="2.07631" fill="#FCD8CC"/>
<rect x="97.6797" y="194.456" width="6.61416" height="4.15263" rx="2.07631" fill="#FCD8CC"/>
</g>
<path d="M248.347 112.453L248.262 112.896L248.712 112.921L266.719 113.913L267.052 113.932L267.125 113.606C268.033 109.558 269.768 106.525 272.237 104.502C274.704 102.48 277.942 101.436 281.912 101.436C286.947 101.436 290.578 102.798 292.978 105.504C295.341 108.169 296.572 112.205 296.684 117.736L275.882 121.924C275.882 121.924 275.881 121.924 275.881 121.924C267.089 123.626 259.89 125.658 254.889 129.148C249.851 132.664 247.064 137.644 247.064 145.139C247.064 151.936 250.143 157.401 255.126 161.156C260.1 164.905 266.959 166.943 274.539 166.943C286.917 166.943 295.225 161.636 299.129 154.647C299.537 156.983 300.398 158.825 301.569 160.272C302.94 161.965 304.717 163.095 306.634 163.849C310.453 165.351 314.887 165.383 317.926 165.383V165.383L317.939 165.383L322.334 165.241L322.716 165.229V164.847V151.803V151.409H322.322H319.486C318.034 151.409 316.997 151.13 316.311 150.428C315.621 149.723 315.201 148.504 315.201 146.415V120.184C315.201 109.623 312.345 101.461 306.717 95.9406C301.09 90.4218 292.753 87.6042 281.912 87.6042C272.773 87.6042 265.135 89.8893 259.399 94.151C253.659 98.4156 249.853 104.638 248.347 112.453ZM279.077 153.536C274.593 153.536 271.319 152.519 269.176 150.903C267.043 149.296 266.001 147.074 266.001 144.572C266.001 142.431 266.457 140.798 267.267 139.516C268.077 138.233 269.26 137.27 270.766 136.504C273.538 135.094 277.32 134.388 281.702 133.571C282.121 133.493 282.546 133.413 282.975 133.332C282.976 133.332 282.977 133.332 282.978 133.332L296.973 130.862V131.102C296.973 138.695 295.04 144.3 291.858 148.001C288.681 151.696 284.223 153.536 279.077 153.536Z" stroke="#F39D80" stroke-width="0.78771"/>
<path d="M315.549 120.736V95.5293" stroke="#F39D80" stroke-width="0.78771"/>
<ellipse cx="315.549" cy="120.736" rx="2.36312" ry="2.36314" fill="#F39D80"/>
<ellipse cx="315.549" cy="120.735" rx="1.57541" ry="1.57543" fill="#FDF6F3"/>
<path d="M297.432 116.009V104.981" stroke="#F39D80" stroke-width="0.78771"/>
<ellipse cx="297.431" cy="116.01" rx="2.36312" ry="2.36314" fill="#F39D80"/>
<ellipse cx="297.431" cy="116.01" rx="1.57541" ry="1.57543" fill="#FDF6F3"/>
<path d="M322.636 165.635L303.731 165.635" stroke="#F39D80" stroke-width="0.78771"/>
<ellipse cx="322.637" cy="165.635" rx="2.36314" ry="2.36312" transform="rotate(-90 322.637 165.635)" fill="#F39D80"/>
<ellipse cx="322.636" cy="165.636" rx="1.57543" ry="1.57541" transform="rotate(-90 322.636 165.636)" fill="#FDF6F3"/>
<path d="M280.886 87.6514L255.68 87.6514" stroke="#F39D80" stroke-width="0.78771"/>
<path d="M306.093 87.6509L280.887 87.6509" stroke="#F39D80" stroke-width="0.78771"/>
<ellipse cx="280.887" cy="87.6505" rx="2.36314" ry="2.36312" transform="rotate(-90 280.887 87.6505)" fill="#F39D80"/>
<ellipse cx="280.886" cy="87.6507" rx="1.57543" ry="1.57541" transform="rotate(-90 280.886 87.6507)" fill="#FDF6F3"/>
<path d="M274.587 167.211L257.258 167.211" stroke="#F39D80" stroke-width="0.78771"/>
<path d="M291.915 167.212L274.586 167.212" stroke="#F39D80" stroke-width="0.78771"/>
<ellipse cx="274.587" cy="167.211" rx="2.36314" ry="2.36312" transform="rotate(-90 274.587 167.211)" fill="#F39D80"/>
<ellipse cx="274.588" cy="167.212" rx="1.57543" ry="1.57541" transform="rotate(-90 274.588 167.212)" fill="#FDF6F3"/>
<path d="M247.019 145.941L247.019 162.483" stroke="#F39D80" stroke-width="0.78771"/>
<path d="M247.019 129.398L247.019 145.94" stroke="#F39D80" stroke-width="0.78771"/>
<rect width="2.36313" height="2.36313" transform="matrix(0.707104 0.707109 -0.707104 0.707109 247.112 127.826)" fill="#F39D80"/>
<rect width="2.36313" height="2.36313" transform="matrix(0.707104 0.707109 -0.707104 0.707109 247.112 160.909)" fill="#F39D80"/>
<ellipse cx="247.019" cy="145.943" rx="2.36312" ry="2.36314" transform="rotate(180 247.019 145.943)" fill="#F39D80"/>
<ellipse cx="247.019" cy="145.94" rx="1.57541" ry="1.57543" transform="rotate(180 247.019 145.94)" fill="#FDF6F3"/>
<path d="M265.923 145.155L265.923 156.183" stroke="#F39D80" stroke-width="0.78771"/>
<path d="M265.923 134.128V145.156" stroke="#F39D80" stroke-width="0.78771"/>
<rect width="2.36313" height="2.36313" transform="matrix(0.707104 0.707109 -0.707104 0.707109 266.02 132.552)" fill="#F39D80"/>
<rect width="2.36313" height="2.36313" transform="matrix(0.707104 0.707109 -0.707104 0.707109 266.02 154.609)" fill="#F39D80"/>
<ellipse cx="265.923" cy="145.156" rx="2.36312" ry="2.36314" transform="rotate(180 265.923 145.156)" fill="#F39D80"/>
<ellipse cx="265.924" cy="145.156" rx="1.57541" ry="1.57543" transform="rotate(180 265.924 145.156)" fill="#FDF6F3"/>
<path d="M251.743 94.7412L248.973 111.305" stroke="#F39D80" stroke-width="0.787708"/>
<ellipse cx="2.36312" cy="2.36314" rx="2.36312" ry="2.36314" transform="matrix(-0.984291 -0.176552 0.176549 -0.984292 250.881 114.049)" fill="#F39D80"/>
<ellipse cx="1.57541" cy="1.57542" rx="1.57541" ry="1.57542" transform="matrix(-0.984291 -0.176552 0.176549 -0.984292 250.244 113.135)" fill="#FDF6F3"/>
<ellipse cx="2.36312" cy="2.36314" rx="2.36312" ry="2.36314" transform="matrix(-0.984291 -0.176552 0.176549 -0.984292 268.999 116.004)" fill="#F39D80"/>
<ellipse cx="1.57541" cy="1.57542" rx="1.57541" ry="1.57542" transform="matrix(-0.984291 -0.176552 0.176549 -0.984292 268.361 115.09)" fill="#FDF6F3"/>
<ellipse cx="2.36312" cy="2.36314" rx="2.36312" ry="2.36314" transform="matrix(-0.984291 -0.176552 0.176549 -0.984292 298.931 134.096)" fill="#F39D80"/>
<ellipse cx="1.57541" cy="1.57542" rx="1.57541" ry="1.57542" transform="matrix(-0.984291 -0.176552 0.176549 -0.984292 298.295 133.182)" fill="#FDF6F3"/>
<ellipse cx="2.36312" cy="2.36314" rx="2.36312" ry="2.36314" transform="matrix(-0.984291 -0.176552 0.176549 -0.984292 324.138 154.58)" fill="#F39D80"/>
<ellipse cx="1.57541" cy="1.57542" rx="1.57541" ry="1.57542" transform="matrix(-0.984291 -0.176552 0.176549 -0.984292 323.501 153.666)" fill="#FDF6F3"/>
<ellipse cx="2.36312" cy="2.36314" rx="2.36312" ry="2.36314" transform="matrix(-0.984291 -0.176552 0.176549 -0.984292 300.506 157.731)" fill="#F39D80"/>
<ellipse cx="1.57541" cy="1.57542" rx="1.57541" ry="1.57542" transform="matrix(-0.984291 -0.176552 0.176549 -0.984292 299.869 156.817)" fill="#FDF6F3"/>
<path d="M281.677 101.043L270.649 101.043" stroke="#F39D80" stroke-width="0.78771"/>
<path d="M292.706 101.043L281.678 101.043" stroke="#F39D80" stroke-width="0.78771"/>
<ellipse cx="281.678" cy="101.043" rx="2.36314" ry="2.36312" transform="rotate(-90 281.678 101.043)" fill="#F39D80"/>
<ellipse cx="281.678" cy="101.042" rx="1.57543" ry="1.57541" transform="rotate(-90 281.678 101.042)" fill="#FDF6F3"/>
<path d="M278.526 153.821L270.649 153.821" stroke="#F39D80" stroke-width="0.78771"/>
<path d="M286.402 153.821H278.525" stroke="#F39D80" stroke-width="0.78771"/>
<ellipse cx="278.526" cy="153.82" rx="2.36314" ry="2.36312" transform="rotate(-90 278.526 153.82)" fill="#F39D80"/>
<ellipse cx="278.527" cy="153.82" rx="1.57543" ry="1.57541" transform="rotate(-90 278.527 153.82)" fill="#FDF6F3"/>
<g clip-path="url(#clip1_72_9172)">
<rect x="233.932" y="207.615" width="77.9774" height="13.4593" rx="6.72967" fill="#FCD8CC"/>
<g filter="url(#filter5_d_72_9172)">
<mask id="path-126-inside-2_72_9172" fill="white">
<path d="M235.881 214.345C235.881 216.985 238.021 219.125 240.661 219.125H255.793C258.434 219.125 260.574 216.985 260.574 214.345V214.345C260.574 211.705 258.434 209.565 255.793 209.565H240.661C238.021 209.565 235.881 211.705 235.881 214.345V214.345Z"/>
</mask>
<path d="M235.881 214.345C235.881 216.985 238.021 219.125 240.661 219.125H255.793C258.434 219.125 260.574 216.985 260.574 214.345V214.345C260.574 211.705 258.434 209.565 255.793 209.565H240.661C238.021 209.565 235.881 211.705 235.881 214.345V214.345Z" fill="#F39D80"/>
<path d="M235.881 214.345C235.881 217.397 238.355 219.872 241.408 219.872H255.047C258.099 219.872 260.574 217.397 260.574 214.345V214.345C260.574 216.572 258.434 218.378 255.793 218.378H240.661C238.021 218.378 235.881 216.572 235.881 214.345V214.345ZM260.574 209.565H235.881H260.574ZM235.881 209.565V219.125V209.565ZM260.574 219.125V209.565V219.125Z" fill="#E8734B" mask="url(#path-126-inside-2_72_9172)"/>
<rect x="241.443" y="213.076" width="13.1456" height="2.39012" rx="1.19506" fill="white"/>
</g>
<g filter="url(#filter6_d_72_9172)">
<rect x="266.024" y="213.151" width="13.1456" height="2.39012" rx="1.19506" fill="#FDEAE3"/>
</g>
<g filter="url(#filter7_d_72_9172)">
<rect x="290.606" y="213.15" width="13.1456" height="2.39012" rx="1.19506" fill="#FDEAE3"/>
</g>
</g>
<rect x="136.46" y="158.392" width="79.7941" height="52.9252" rx="5.84831" fill="white"/>
<mask id="path-134-inside-3_72_9172" fill="white">
<path d="M136.46 158.392H216.254V171.664H136.46V158.392Z"/>
</mask>
<path d="M216.254 171.333H136.46V171.996H216.254V171.333Z" fill="#F1F3F6" mask="url(#path-134-inside-3_72_9172)"/>
<path d="M140.358 164.945C140.358 166.411 141.547 167.6 143.013 167.6H166.904C168.37 167.6 169.558 166.411 169.558 164.945V164.945C169.558 163.479 168.37 162.29 166.904 162.29H143.013C141.547 162.29 140.358 163.479 140.358 164.945V164.945Z" fill="#FDEAE3"/>
<path d="M174.433 165.028C174.433 166.54 175.658 167.766 177.17 167.766H188.22C189.732 167.766 190.957 166.54 190.957 165.028V165.028C190.957 163.516 189.732 162.291 188.22 162.291H177.17C175.658 162.291 174.433 163.516 174.433 165.028V165.028Z" fill="#FDEAE3"/>
<path d="M195.831 165.028C195.831 166.54 197.057 167.766 198.569 167.766H209.618C211.13 167.766 212.356 166.54 212.356 165.028V165.028C212.356 163.516 211.13 162.291 209.618 162.291H198.569C197.057 162.291 195.831 163.516 195.831 165.028V165.028Z" fill="#FDEAE3"/>
<mask id="path-139-inside-4_72_9172" fill="white">
<path d="M136.46 171.664H216.254V184.937H136.46V171.664Z"/>
</mask>
<path d="M216.254 184.605H136.46V185.269H216.254V184.605Z" fill="#F1F3F6" mask="url(#path-139-inside-4_72_9172)"/>
<path d="M140.358 178.218C140.358 179.684 141.547 180.872 143.013 180.872V180.872C144.479 180.872 145.667 179.684 145.667 178.218V178.218C145.667 176.751 144.479 175.563 143.013 175.563V175.563C141.547 175.563 140.358 176.751 140.358 178.218V178.218Z" fill="#FDEAE3"/>
<path d="M148.322 178.218C148.322 179.684 149.511 180.872 150.977 180.872H166.904C168.37 180.872 169.559 179.684 169.559 178.218V178.218C169.559 176.751 168.37 175.563 166.904 175.563H150.977C149.511 175.563 148.322 176.751 148.322 178.218V178.218Z" fill="#FDEAE3"/>
<path d="M174.433 178.301C174.433 179.812 175.658 181.038 177.17 181.038H188.22C189.732 181.038 190.957 179.812 190.957 178.301V178.301C190.957 176.789 189.732 175.563 188.22 175.563H177.17C175.658 175.563 174.433 176.789 174.433 178.301V178.301Z" fill="#FDEAE3"/>
<path d="M195.831 178.301C195.831 179.812 197.057 181.038 198.569 181.038H209.618C211.13 181.038 212.356 179.812 212.356 178.301V178.301C212.356 176.789 211.13 175.563 209.618 175.563H198.569C197.057 175.563 195.831 176.789 195.831 178.301V178.301Z" fill="#FDEAE3"/>
<mask id="path-145-inside-5_72_9172" fill="white">
<path d="M136.46 184.938H216.254V198.21H136.46V184.938Z"/>
</mask>
<path d="M216.254 197.723H136.46V198.698H216.254V197.723Z" fill="#F1F3F6" mask="url(#path-145-inside-5_72_9172)"/>
<path d="M140.358 191.491C140.358 192.957 141.547 194.146 143.013 194.146V194.146C144.479 194.146 145.667 192.957 145.667 191.491V191.491C145.667 190.025 144.479 188.836 143.013 188.836V188.836C141.547 188.836 140.358 190.025 140.358 191.491V191.491Z" fill="#FDEAE3"/>
<path d="M148.322 191.491C148.322 192.957 149.511 194.146 150.977 194.146H166.904C168.37 194.146 169.559 192.957 169.559 191.491V191.491C169.559 190.025 168.37 188.836 166.904 188.836H150.977C149.511 188.836 148.322 190.025 148.322 191.491V191.491Z" fill="#FDEAE3"/>
<path d="M174.433 191.574C174.433 193.086 175.658 194.312 177.17 194.312H188.22C189.732 194.312 190.957 193.086 190.957 191.574V191.574C190.957 190.062 189.732 188.837 188.22 188.837H177.17C175.658 188.837 174.433 190.062 174.433 191.574V191.574Z" fill="#FDEAE3"/>
<path d="M195.831 191.574C195.831 193.086 197.057 194.312 198.569 194.312H209.618C211.13 194.312 212.356 193.086 212.356 191.574V191.574C212.356 190.062 211.13 188.837 209.618 188.837H198.569C197.057 188.837 195.831 190.062 195.831 191.574V191.574Z" fill="#FDEAE3"/>
<path d="M140.358 204.763C140.358 206.229 141.547 207.418 143.013 207.418V207.418C144.479 207.418 145.667 206.229 145.667 204.763V204.763C145.667 203.297 144.479 202.109 143.013 202.109V202.109C141.547 202.109 140.358 203.297 140.358 204.763V204.763Z" fill="#FDEAE3"/>
<path d="M148.322 204.763C148.322 206.229 149.511 207.418 150.977 207.418H166.904C168.37 207.418 169.559 206.229 169.559 204.763V204.763C169.559 203.297 168.37 202.109 166.904 202.109H150.977C149.511 202.109 148.322 203.297 148.322 204.763V204.763Z" fill="#FDEAE3"/>
<path d="M174.433 204.763C174.433 206.229 175.621 207.418 177.087 207.418H188.303C189.769 207.418 190.957 206.229 190.957 204.763V204.763C190.957 203.297 189.769 202.109 188.303 202.109H177.087C175.621 202.109 174.433 203.297 174.433 204.763V204.763Z" fill="#FDEAE3"/>
<path d="M195.831 204.763C195.831 206.229 197.02 207.418 198.486 207.418H209.701C211.167 207.418 212.356 206.229 212.356 204.763V204.763C212.356 203.297 211.167 202.109 209.701 202.109H198.486C197.02 202.109 195.831 203.297 195.831 204.763V204.763Z" fill="#FDEAE3"/>
<rect y="-0.000488281" width="109.168" height="83.0296" rx="8.18764" fill="white"/>
<mask id="path-156-inside-6_72_9172" fill="white">
<path d="M0 0.000488281H109.168V20.5016H0V0.000488281Z"/>
</mask>
<path d="M109.168 19.9891H0V21.0142H109.168V19.9891Z" fill="#F1F3F6" mask="url(#path-156-inside-6_72_9172)"/>
<ellipse cx="10.2503" cy="10.2513" rx="2.05011" ry="2.05011" fill="#FE5F58"/>
<ellipse cx="18.4505" cy="10.2513" rx="2.05011" ry="2.05011" fill="#FEBC2E"/>
<ellipse cx="26.6517" cy="10.2513" rx="2.05011" ry="2.05011" fill="#28C840"/>
<rect x="39.1299" y="45.9868" width="64.5785" height="31.5845" rx="5.45842" fill="#F39D80"/>
<path d="M92.3577 57.3367L94.1491 55.5454M95.9404 53.7541L94.1491 55.5454M94.1491 55.5454L92.3577 53.7541M94.1491 55.5454L95.9404 57.3367" stroke="#FCD8CC" stroke-width="0.512528" stroke-linecap="round" stroke-linejoin="round"/>
<rect x="44.5879" y="62.375" width="53.6616" height="3.84396" rx="1.92198" fill="#FCD8CC"/>
<rect x="75.0195" y="68.269" width="10.2506" height="3.84396" rx="1.92198" fill="#FCD8CC"/>
<rect x="87.999" y="68.269" width="10.2506" height="3.84396" rx="1.92198" fill="#FCD8CC"/>
<rect width="275.576" height="221.397" transform="translate(36.7881 29.4302)" fill="url(#paint0_linear_72_9172)" fill-opacity="0.75"/>
<defs>
<filter id="filter0_d_72_9172" x="145.087" y="47.3457" width="107.646" height="79.5898" filterUnits="userSpaceOnUse" color-interpolation-filters="sRGB">
<feFlood flood-opacity="0" result="BackgroundImageFix"/>
<feColorMatrix in="SourceAlpha" type="matrix" values="0 0 0 0 0 0 0 0 0 0 0 0 0 0 0 0 0 0 127 0" result="hardAlpha"/>
<feOffset/>
<feGaussianBlur stdDeviation="3.43553"/>
<feComposite in2="hardAlpha" operator="out"/>
<feColorMatrix type="matrix" values="0 0 0 0 0.402864 0 0 0 0 0.479839 0 0 0 0 0.752751 0 0 0 0.09 0"/>
<feBlend mode="normal" in2="BackgroundImageFix" result="effect1_dropShadow_72_9172"/>
<feBlend mode="normal" in="SourceGraphic" in2="effect1_dropShadow_72_9172" result="shape"/>
</filter>
<filter id="filter1_d_72_9172" x="145.087" y="47.3457" width="107.646" height="79.5898" filterUnits="userSpaceOnUse" color-interpolation-filters="sRGB">
<feFlood flood-opacity="0" result="BackgroundImageFix"/>
<feColorMatrix in="SourceAlpha" type="matrix" values="0 0 0 0 0 0 0 0 0 0 0 0 0 0 0 0 0 0 127 0" result="hardAlpha"/>
<feOffset/>
<feGaussianBlur stdDeviation="3.43553"/>
<feComposite in2="hardAlpha" operator="out"/>
<feColorMatrix type="matrix" values="0 0 0 0 0.402864 0 0 0 0 0.479839 0 0 0 0 0.752751 0 0 0 0.09 0"/>
<feBlend mode="normal" in2="BackgroundImageFix" result="effect1_dropShadow_72_9172"/>
<feBlend mode="normal" in="SourceGraphic" in2="effect1_dropShadow_72_9172" result="shape"/>
</filter>
<filter id="filter2_d_72_9172" x="222.723" y="44.8365" width="108.681" height="38.989" filterUnits="userSpaceOnUse" color-interpolation-filters="sRGB">
<feFlood flood-opacity="0" result="BackgroundImageFix"/>
<feColorMatrix in="SourceAlpha" type="matrix" values="0 0 0 0 0 0 0 0 0 0 0 0 0 0 0 0 0 0 127 0" result="hardAlpha"/>
<feOffset dy="1.94944"/>
<feGaussianBlur stdDeviation="4.87359"/>
<feComposite in2="hardAlpha" operator="out"/>
<feColorMatrix type="matrix" values="0 0 0 0 0 0 0 0 0 0 0 0 0 0 0 0 0 0 0.1 0"/>
<feBlend mode="normal" in2="BackgroundImageFix" result="effect1_dropShadow_72_9172"/>
<feBlend mode="normal" in="SourceGraphic" in2="effect1_dropShadow_72_9172" result="shape"/>
</filter>
<filter id="filter3_d_72_9172" x="41.2375" y="161.166" width="73.4791" height="28.6422" filterUnits="userSpaceOnUse" color-interpolation-filters="sRGB">
<feFlood flood-opacity="0" result="BackgroundImageFix"/>
<feColorMatrix in="SourceAlpha" type="matrix" values="0 0 0 0 0 0 0 0 0 0 0 0 0 0 0 0 0 0 127 0" result="hardAlpha"/>
<feOffset dy="1.49957"/>
<feGaussianBlur stdDeviation="3.74892"/>
<feComposite in2="hardAlpha" operator="out"/>
<feColorMatrix type="matrix" values="0 0 0 0 0 0 0 0 0 0 0 0 0 0 0 0 0 0 0.1 0"/>
<feBlend mode="normal" in2="BackgroundImageFix" result="effect1_dropShadow_72_9172"/>
<feBlend mode="normal" in="SourceGraphic" in2="effect1_dropShadow_72_9172" result="shape"/>
</filter>
<filter id="filter4_d_72_9172" x="43.112" y="180.21" width="69.7301" height="55.8121" filterUnits="userSpaceOnUse" color-interpolation-filters="sRGB">
<feFlood flood-opacity="0" result="BackgroundImageFix"/>
<feColorMatrix in="SourceAlpha" type="matrix" values="0 0 0 0 0 0 0 0 0 0 0 0 0 0 0 0 0 0 127 0" result="hardAlpha"/>
<feOffset dy="1.12467"/>
<feGaussianBlur stdDeviation="2.81167"/>
<feComposite in2="hardAlpha" operator="out"/>
<feColorMatrix type="matrix" values="0 0 0 0 0 0 0 0 0 0 0 0 0 0 0 0 0 0 0.1 0"/>
<feBlend mode="normal" in2="BackgroundImageFix" result="effect1_dropShadow_72_9172"/>
<feBlend mode="normal" in="SourceGraphic" in2="effect1_dropShadow_72_9172" result="shape"/>
</filter>
<filter id="filter5_d_72_9172" x="232.146" y="206.577" width="32.1615" height="17.0297" filterUnits="userSpaceOnUse" color-interpolation-filters="sRGB">
<feFlood flood-opacity="0" result="BackgroundImageFix"/>
<feColorMatrix in="SourceAlpha" type="matrix" values="0 0 0 0 0 0 0 0 0 0 0 0 0 0 0 0 0 0 127 0" result="hardAlpha"/>
<feOffset dy="0.746911"/>
<feGaussianBlur stdDeviation="1.86728"/>
<feComposite in2="hardAlpha" operator="out"/>
<feColorMatrix type="matrix" values="0 0 0 0 0 0 0 0 0 0 0 0 0 0 0 0 0 0 0.1 0"/>
<feBlend mode="normal" in2="BackgroundImageFix" result="effect1_dropShadow_72_9172"/>
<feBlend mode="normal" in="SourceGraphic" in2="effect1_dropShadow_72_9172" result="shape"/>
</filter>
<filter id="filter6_d_72_9172" x="256.84" y="206.577" width="32.1615" height="17.0297" filterUnits="userSpaceOnUse" color-interpolation-filters="sRGB">
<feFlood flood-opacity="0" result="BackgroundImageFix"/>
<feColorMatrix in="SourceAlpha" type="matrix" values="0 0 0 0 0 0 0 0 0 0 0 0 0 0 0 0 0 0 127 0" result="hardAlpha"/>
<feOffset dy="0.746911"/>
<feGaussianBlur stdDeviation="1.86728"/>
<feComposite in2="hardAlpha" operator="out"/>
<feColorMatrix type="matrix" values="0 0 0 0 0 0 0 0 0 0 0 0 0 0 0 0 0 0 0.1 0"/>
<feBlend mode="normal" in2="BackgroundImageFix" result="effect1_dropShadow_72_9172"/>
<feBlend mode="normal" in="SourceGraphic" in2="effect1_dropShadow_72_9172" result="shape"/>
</filter>
<filter id="filter7_d_72_9172" x="281.532" y="206.577" width="32.1615" height="17.0297" filterUnits="userSpaceOnUse" color-interpolation-filters="sRGB">
<feFlood flood-opacity="0" result="BackgroundImageFix"/>
<feColorMatrix in="SourceAlpha" type="matrix" values="0 0 0 0 0 0 0 0 0 0 0 0 0 0 0 0 0 0 127 0" result="hardAlpha"/>
<feOffset dy="0.746911"/>
<feGaussianBlur stdDeviation="1.86728"/>
<feComposite in2="hardAlpha" operator="out"/>
<feColorMatrix type="matrix" values="0 0 0 0 0 0 0 0 0 0 0 0 0 0 0 0 0 0 0.1 0"/>
<feBlend mode="normal" in2="BackgroundImageFix" result="effect1_dropShadow_72_9172"/>
<feBlend mode="normal" in="SourceGraphic" in2="effect1_dropShadow_72_9172" result="shape"/>
</filter>
<linearGradient id="paint0_linear_72_9172" x1="137.788" y1="0" x2="137.788" y2="221.397" gradientUnits="userSpaceOnUse">
<stop stop-color="white" stop-opacity="0"/>
<stop offset="1" stop-color="white" stop-opacity="0.8"/>
</linearGradient>
<clipPath id="clip0_72_9172">
<path d="M142.797 43.9096C142.797 40.1149 145.873 37.0386 149.668 37.0386H201.201C204.996 37.0386 208.072 40.1149 208.072 43.9096V96.8741C208.072 100.669 204.996 103.745 201.201 103.745H149.668C145.873 103.745 142.797 100.669 142.797 96.8741V43.9096Z" fill="white"/>
</clipPath>
<clipPath id="clip1_72_9172">
<rect x="233.932" y="207.615" width="77.9774" height="13.4593" rx="6.72967" fill="white"/>
</clipPath>
</defs>
</svg>
