<svg width="382" height="326" viewBox="0 0 382 326" fill="none" xmlns="http://www.w3.org/2000/svg">
<g filter="url(#filter0_d_72_9173)">
<rect x="40" y="17" width="79.7217" height="79.7217" rx="22.1449" fill="white"/>
<rect x="40" y="17" width="79.7217" height="79.7217" rx="22.1449" stroke="#E5E5E7" stroke-width="0.885797"/>
<g clip-path="url(#clip0_72_9173)">
<path d="M82.8894 77.0815C81.8341 78.4106 79.6942 77.6824 79.6687 75.9853L79.2969 51.1641H95.9867C99.0096 51.1641 100.696 54.6556 98.8159 57.0231L82.8894 77.0815Z" fill="url(#paint0_linear_72_9173)"/>
<path d="M82.8894 77.0815C81.8341 78.4106 79.6942 77.6824 79.6687 75.9853L79.2969 51.1641H95.9867C99.0096 51.1641 100.696 54.6556 98.8159 57.0231L82.8894 77.0815Z" fill="url(#paint1_linear_72_9173)" fill-opacity="0.2"/>
<path d="M76.1023 37.1415C77.1577 35.8123 79.2977 36.5406 79.3231 38.2377L79.486 63.0589H63.0051C59.9821 63.0589 58.2961 59.5673 60.1759 57.1998L76.1023 37.1415Z" fill="#3ECF8E"/>
</g>
</g>
<g filter="url(#filter1_d_72_9173)">
<rect x="151.094" y="17" width="79.7217" height="79.7217" rx="22.1449" fill="white"/>
<rect x="151.094" y="17" width="79.7217" height="79.7217" rx="22.1449" stroke="#E5E5E7" stroke-width="0.885797"/>
<g clip-path="url(#clip1_72_9173)">
<path d="M191.046 36.377L214.667 77.2906H167.425L191.046 36.377Z" fill="black"/>
</g>
</g>
<g filter="url(#filter2_d_72_9173)">
<rect x="262.188" y="17" width="79.7217" height="79.7217" rx="22.1449" fill="white"/>
<rect x="262.188" y="17" width="79.7217" height="79.7217" rx="22.1449" stroke="#E5E5E7" stroke-width="0.885797"/>
<g clip-path="url(#clip2_72_9173)">
<path d="M287.47 59.2875L287.544 48.2169C287.557 46.2128 288.958 44.4947 290.893 44.1118L301.584 41.9923C304.153 41.483 306.538 43.4936 306.521 46.1537L306.447 57.2262C306.433 59.2294 305.032 60.9466 303.097 61.3304L292.405 63.4499C289.837 63.9592 287.452 61.9486 287.47 59.2875Z" fill="#111827" fill-opacity="0.2"/>
<path d="M292.707 63.7046L292.781 52.6321C292.793 50.6299 294.195 48.9127 296.13 48.5289L306.822 46.4103C309.391 45.901 311.775 47.9107 311.757 50.5717L311.683 61.6442C311.671 63.6474 310.269 65.3646 308.334 65.7484L297.643 67.8679C295.074 68.3763 292.69 66.3666 292.707 63.7065V63.7046Z" fill="#111827" fill-opacity="0.5"/>
<path d="M297.946 68.1215L298.02 57.049C298.033 55.0449 299.435 53.3287 301.37 52.9448L312.061 50.8254C314.63 50.316 317.014 52.3266 316.996 54.9868L316.923 66.0592C316.91 68.0633 315.508 69.7805 313.573 70.1634L302.882 72.2829C300.313 72.7922 297.929 70.7816 297.945 68.1215H297.946Z" fill="#111827" fill-opacity="0.8"/>
</g>
</g>
<g filter="url(#filter3_d_72_9173)">
<rect x="40" y="118.722" width="79.7217" height="79.7217" rx="22.1449" fill="white"/>
<rect x="40" y="118.722" width="79.7217" height="79.7217" rx="22.1449" stroke="#E5E5E7" stroke-width="0.885797"/>
<g clip-path="url(#clip3_72_9173)">
<path d="M79.1675 132.565C82.4357 132.659 85.3875 134.578 86.8019 137.547L92.4145 149.354L92.5048 149.125C92.7277 148.537 92.9104 147.934 93.0516 147.321L93.13 146.955C94.0758 142.226 98.6723 139.166 103.41 140.101C104.535 140.326 105.605 140.77 106.559 141.409C107.512 142.047 108.331 142.867 108.967 143.822C109.604 144.777 110.046 145.847 110.269 146.973C110.491 148.099 110.49 149.257 110.264 150.383C109.004 156.678 105.754 162.521 101.093 167.15L100.945 167.293L102.913 171.43C105.196 176.232 102.83 182.037 97.8576 183.666L97.6332 183.736L97.4619 183.788C96.7011 184.002 95.9145 184.111 95.1241 184.112C93.4717 184.112 91.8531 183.644 90.456 182.762C89.0588 181.879 87.9402 180.619 87.2299 179.127L85.7111 175.934L85.3279 176.029C83.2748 176.514 81.1923 176.783 79.1089 176.824L78.5408 176.83C76.5359 176.83 74.4978 176.597 72.4617 176.145L72.0601 176.052L70.601 179.119C69.6172 181.188 67.8601 182.787 65.7083 183.572L65.4485 183.663C64.3278 184.032 63.1438 184.171 61.9681 184.07C60.7923 183.969 59.6492 183.631 58.6078 183.076C54.4599 180.871 52.8782 175.709 54.9021 171.446L56.7138 167.636L56.5556 167.483C54.0718 165.032 52.1027 162.247 50.7965 159.254L50.6224 158.844L50.5974 158.778C48.7995 154.308 50.9585 149.22 55.4258 147.411C58.9298 145.992 62.814 147.011 65.2026 149.673L65.2475 149.725L71.0219 137.578C71.7065 136.115 72.7846 134.871 74.1357 133.986C75.4867 133.101 77.0574 132.609 78.6722 132.565L78.9166 132.562L79.1675 132.565Z" fill="white"/>
<path d="M70.5422 172.73L75.7143 161.848C71.7639 161.009 67.7892 158.566 65.5411 155.593L60.1328 166.963C63.1381 169.512 66.7465 171.516 70.5422 172.73Z" fill="#1A007F"/>
<path d="M92.1269 155.267C89.5286 158.451 85.9205 160.814 82.0596 161.734L87.2154 172.583C90.9785 171.312 94.4971 169.26 97.5355 166.629L92.1269 155.267Z" fill="#4E000A"/>
<path d="M60.1339 166.963L57.4298 172.649C56.0531 175.54 57.0875 179.099 59.922 180.606C62.9276 182.203 66.6255 180.957 68.0754 177.918L70.5433 172.73C66.7322 171.501 63.1967 169.543 60.1339 166.963Z" fill="#1A007F"/>
<path d="M102.863 142.854C102.098 142.701 101.311 142.7 100.546 142.851C99.7806 143.002 99.0527 143.303 98.4037 143.735C97.7548 144.168 97.1974 144.724 96.7635 145.372C96.3295 146.021 96.0275 146.748 95.8747 147.513C95.3045 150.364 93.9687 153.019 92.1279 155.275L97.5282 166.646C102.513 162.321 106.194 156.432 107.514 149.842C108.158 146.617 106.072 143.489 102.863 142.854Z" fill="#FF9396"/>
<path d="M82.0593 161.734C80.9028 162.011 79.7218 162.157 78.5407 162.157C77.6204 162.157 76.6675 162.051 75.7144 161.848C71.764 161.009 67.7893 158.565 65.5412 155.592C64.979 154.851 64.5232 154.077 64.2054 153.287C62.9755 150.249 59.5138 148.783 56.4756 150.005C53.4375 151.235 51.9718 154.696 53.1932 157.734C54.5859 161.188 57.0458 164.356 60.1329 166.963C63.1927 169.542 66.7255 171.501 70.5341 172.73C73.1487 173.568 75.8609 174.033 78.5327 174.033C81.4974 174.033 84.4215 173.52 87.2071 172.583L82.0593 161.734Z" fill="#002DC8"/>
<path d="M100.378 172.624L97.5275 166.629L92.1273 155.267L92.1192 155.275C92.1192 155.275 92.1192 155.267 92.1273 155.267L84.2756 138.749C83.7935 137.735 83.0343 136.879 82.0857 136.279C81.1371 135.68 80.0381 135.361 78.9159 135.36C76.627 135.36 74.5419 136.68 73.5565 138.749L65.5498 155.593C67.7978 158.566 71.7726 161.009 75.723 161.848L78.3131 156.407C78.5576 155.894 79.2905 155.894 79.535 156.407L82.0681 161.734H82.0844H82.0679L87.224 172.583L89.7571 177.91C90.2387 178.926 90.999 179.783 91.9493 180.383C92.8995 180.983 94.0008 181.301 95.1246 181.299C95.6542 181.299 96.1835 181.226 96.7048 181.079C100.281 180.093 101.975 175.98 100.378 172.624Z" fill="#FF536A"/>
</g>
</g>
<g filter="url(#filter4_d_72_9173)">
<rect x="151.094" y="118.722" width="79.7217" height="79.7217" rx="22.1449" fill="white"/>
<rect x="151.094" y="118.722" width="79.7217" height="79.7217" rx="22.1449" stroke="#E5E5E7" stroke-width="0.885797"/>
<g clip-path="url(#clip4_72_9173)">
<path d="M196.949 133.288C194.231 130.063 191.891 126.788 191.413 126.108C191.402 126.096 191.388 126.087 191.373 126.08C191.358 126.074 191.341 126.07 191.325 126.07C191.309 126.07 191.292 126.074 191.277 126.08C191.262 126.087 191.248 126.096 191.237 126.108C190.759 126.788 188.419 130.063 185.701 133.288C162.374 163.038 189.375 183.115 189.375 183.115L189.601 183.267C189.802 186.365 190.306 190.824 190.306 190.824H192.319C192.319 190.824 192.822 186.39 193.023 183.267L193.25 183.09C193.275 183.116 220.276 163.038 196.949 133.288ZM191.312 182.662C191.312 182.662 190.104 181.629 189.777 181.1V181.05L191.237 148.654C191.237 148.553 191.388 148.553 191.388 148.654L192.847 181.05V181.1C192.52 181.629 191.312 182.662 191.312 182.662V182.662Z" fill="#01EC64"/>
</g>
</g>
<g filter="url(#filter5_d_72_9173)">
<rect x="262.188" y="118.722" width="79.7217" height="79.7217" rx="22.1449" fill="white"/>
<rect x="262.188" y="118.722" width="79.7217" height="79.7217" rx="22.1449" stroke="#E5E5E7" stroke-width="0.885797"/>
<g clip-path="url(#clip5_72_9173)">
<path d="M279.373 177.716L279.749 177.189L297.537 143.438L297.574 143.081L289.733 128.352C289.076 127.118 287.227 127.43 287.011 128.811L279.373 177.716Z" fill="#FFC24A"/>
<path d="M279.595 177.315L279.879 176.761L297.48 143.363L289.659 128.574C289.009 127.354 287.358 127.665 287.145 129.032L279.595 177.315Z" fill="#FFA712"/>
<g filter="url(#filter6_i_72_9173)">
<path d="M279.595 177.315L279.879 176.761L297.48 143.363L289.659 128.574C289.009 127.354 287.358 127.665 287.145 129.032L279.595 177.315Z" fill="black"/>
</g>
<path d="M303.29 154.222L309.129 148.243L303.289 137.094C302.734 136.039 301.186 136.036 300.638 137.094L297.518 143.045V143.551L303.29 154.222H303.29Z" fill="#F4BD62"/>
<path d="M303.186 153.973L308.862 148.16L303.186 137.352C302.647 136.326 301.338 136.219 300.805 137.248L297.668 143.29L297.574 143.599L303.186 153.973V153.973Z" fill="#FFA50E"/>
<g filter="url(#filter7_i_72_9173)">
<path d="M303.186 153.973L308.862 148.16L303.186 137.352C302.647 136.326 301.338 136.219 300.805 137.248L297.668 143.29L297.574 143.599L303.186 153.973V153.973Z" fill="black"/>
</g>
<path d="M279.373 177.716L279.543 177.545L280.163 177.293L302.924 154.617L303.212 153.832L297.534 143.012L279.373 177.716Z" fill="#F6820C"/>
<path d="M304.02 189.153L324.619 177.665L318.736 141.436C318.552 140.303 317.162 139.855 316.35 140.668L279.373 177.717L299.854 189.152C300.491 189.507 301.208 189.694 301.937 189.694C302.666 189.694 303.383 189.508 304.02 189.153Z" fill="#FDE068"/>
<path d="M324.434 177.567L318.596 141.614C318.414 140.489 317.258 140.024 316.452 140.831L279.602 177.645L299.858 188.967C300.49 189.32 301.201 189.505 301.925 189.505C302.648 189.506 303.36 189.321 303.992 188.968L324.434 177.567L324.434 177.567Z" fill="#FCCA3F"/>
<path d="M304.019 188.814C303.383 189.169 302.666 189.355 301.936 189.355C301.207 189.355 300.491 189.168 299.854 188.813L279.538 177.542L279.373 177.716L299.854 189.151C300.491 189.507 301.207 189.693 301.937 189.694C302.666 189.694 303.383 189.507 304.019 189.152L324.619 177.664L324.568 177.354L304.019 188.814L304.019 188.814Z" fill="#EEAB37"/>
</g>
</g>
<g filter="url(#filter8_d_72_9173)">
<rect x="40" y="220.443" width="79.7217" height="79.7217" rx="22.1449" fill="white"/>
<rect x="40" y="220.443" width="79.7217" height="79.7217" rx="22.1449" stroke="#E5E5E7" stroke-width="0.885797"/>
<g clip-path="url(#clip6_72_9173)">
<path d="M55.8521 241.851C51.2017 241.851 48.0091 243.899 45.5732 246.187C45.5732 246.187 44.5951 247.11 44.6135 247.147L54.8002 257.334L64.9869 247.147C63.0492 244.49 59.4137 241.851 55.8521 241.851Z" fill="#FF6143"/>
<path d="M81.006 241.851C76.3556 241.851 73.163 243.899 70.7271 246.187C70.7271 246.187 69.8413 247.092 69.7859 247.147L57.2002 259.733L67.3684 269.901L90.1223 247.147C88.1846 244.49 84.5676 241.851 81.006 241.851Z" fill="#FF6143"/>
<path d="M106.214 241.851C101.563 241.851 98.3706 243.899 95.9346 246.187C95.9346 246.187 95.0119 247.092 94.975 247.147L69.7852 272.337L72.4425 274.994C76.5578 279.109 83.312 279.109 87.4457 274.994L115.293 247.147H115.33C113.411 244.49 109.775 241.851 106.214 241.851Z" fill="#FF6143"/>
</g>
</g>
<g filter="url(#filter9_d_72_9173)">
<rect x="151.094" y="220.443" width="79.7217" height="79.7217" rx="22.1449" fill="white"/>
<rect x="151.094" y="220.443" width="79.7217" height="79.7217" rx="22.1449" stroke="#E5E5E7" stroke-width="0.885797"/>
<path d="M190.954 236.683C177.909 236.683 167.333 247.258 167.333 260.304C167.333 273.35 177.909 283.925 190.954 283.925C204.001 283.925 214.576 273.35 214.576 260.304C214.576 247.259 204.001 236.684 190.954 236.684L190.954 236.683L190.954 236.683ZM201.787 270.751C201.363 271.445 200.455 271.665 199.761 271.239C194.215 267.852 187.234 267.084 179.012 268.963C178.631 269.05 178.231 268.982 177.901 268.774C177.57 268.566 177.336 268.235 177.249 267.855C177.205 267.666 177.2 267.471 177.232 267.28C177.264 267.09 177.334 266.907 177.437 266.743C177.54 266.58 177.674 266.438 177.831 266.326C177.989 266.214 178.167 266.134 178.356 266.092C187.354 264.036 195.072 264.921 201.299 268.726C201.993 269.152 202.213 270.058 201.787 270.751ZM204.678 264.32C204.145 265.186 203.011 265.46 202.145 264.927C195.796 261.024 186.117 259.894 178.607 262.173C177.633 262.467 176.604 261.919 176.309 260.946C176.015 259.972 176.564 258.945 177.537 258.649C186.115 256.046 196.78 257.307 204.071 261.788C204.937 262.321 205.211 263.455 204.678 264.32ZM204.926 257.622C197.313 253.1 184.753 252.684 177.484 254.891C176.317 255.244 175.082 254.585 174.729 253.418C174.375 252.251 175.033 251.017 176.201 250.662C184.545 248.129 198.416 248.619 207.181 253.822C208.233 254.445 208.577 255.801 207.954 256.849C207.333 257.899 205.974 258.246 204.927 257.622H204.926Z" fill="#1ED760"/>
</g>
<g filter="url(#filter10_d_72_9173)">
<rect x="262.188" y="220.443" width="79.7217" height="79.7217" rx="22.1449" fill="white"/>
<rect x="262.188" y="220.443" width="79.7217" height="79.7217" rx="22.1449" stroke="#E5E5E7" stroke-width="0.885797"/>
<g clip-path="url(#clip7_72_9173)">
<path d="M302.049 234.469C281.954 234.469 276.213 240.21 276.213 260.304C276.213 280.399 281.969 286.14 302.049 286.14C322.129 286.14 327.884 280.399 327.884 260.304C327.884 240.21 322.129 234.469 302.049 234.469Z" fill="#00AA45"/>
<path fill-rule="evenodd" clip-rule="evenodd" d="M282.9 241.156C279.523 244.533 278.058 250.296 278.058 260.304C278.058 270.312 279.526 276.075 282.905 279.453C286.284 282.83 292.048 284.295 302.049 284.295C312.05 284.295 317.813 282.83 321.192 279.453C324.571 276.075 326.039 270.312 326.039 260.304C326.039 250.297 324.571 244.534 321.192 241.156C317.813 237.779 312.05 236.314 302.049 236.314C292.04 236.314 286.277 237.779 282.9 241.156ZM276.213 260.304C276.213 240.21 281.954 234.469 302.049 234.469C322.129 234.469 327.884 240.21 327.884 260.304C327.884 280.399 322.129 286.14 302.049 286.14C281.969 286.14 276.213 280.399 276.213 260.304Z" fill="#219653"/>
<path fill-rule="evenodd" clip-rule="evenodd" d="M301.197 246.464H290.054V277.836H298.713V271.274H301.197C308.259 271.274 314.044 265.753 314.044 258.869C314.044 251.985 308.259 246.464 301.197 246.464ZM298.713 262.868V254.871H301.197C303.543 254.871 305.385 256.693 305.385 258.869C305.385 261.045 303.543 262.868 301.197 262.868H298.713Z" fill="#24292E"/>
<path fill-rule="evenodd" clip-rule="evenodd" d="M292.821 245.541H303.042C309.628 245.541 314.966 250.682 314.966 257.024C314.966 263.365 309.628 268.506 303.042 268.506H299.635V275.068H292.821V245.541ZM299.635 261.945H303.042C305.864 261.945 308.152 259.741 308.152 257.024C308.152 254.306 305.864 252.102 303.042 252.102H299.635V261.945Z" fill="white"/>
<path fill-rule="evenodd" clip-rule="evenodd" d="M291.898 244.618H303.042C310.104 244.618 315.889 250.14 315.889 257.023C315.889 263.907 310.104 269.429 303.042 269.429H300.558V275.99H291.898V244.618ZM293.744 246.464V274.145H298.712V267.583H303.042C309.151 267.583 314.043 262.823 314.043 257.023C314.043 251.224 309.151 246.464 303.042 246.464H293.744ZM298.712 251.18H303.042C306.341 251.18 309.075 253.763 309.075 257.023C309.075 260.283 306.341 262.867 303.042 262.867H298.712V251.18ZM300.558 253.025V261.022H303.042C305.388 261.022 307.23 259.199 307.23 257.023C307.23 254.848 305.388 253.025 303.042 253.025H300.558Z" fill="#24292E"/>
</g>
</g>
<rect width="380.155" height="305.415" transform="translate(0.922852 0.353516)" fill="url(#paint2_linear_72_9173)"/>
<defs>
<filter id="filter0_d_72_9173" x="34.2419" y="13.0135" width="91.238" height="91.238" filterUnits="userSpaceOnUse" color-interpolation-filters="sRGB">
<feFlood flood-opacity="0" result="BackgroundImageFix"/>
<feColorMatrix in="SourceAlpha" type="matrix" values="0 0 0 0 0 0 0 0 0 0 0 0 0 0 0 0 0 0 127 0" result="hardAlpha"/>
<feOffset dy="1.77159"/>
<feGaussianBlur stdDeviation="2.65739"/>
<feComposite in2="hardAlpha" operator="out"/>
<feColorMatrix type="matrix" values="0 0 0 0 0.413867 0 0 0 0 0.413867 0 0 0 0 0.413867 0 0 0 0.12 0"/>
<feBlend mode="normal" in2="BackgroundImageFix" result="effect1_dropShadow_72_9173"/>
<feBlend mode="normal" in="SourceGraphic" in2="effect1_dropShadow_72_9173" result="shape"/>
</filter>
<filter id="filter1_d_72_9173" x="145.336" y="13.0135" width="91.238" height="91.238" filterUnits="userSpaceOnUse" color-interpolation-filters="sRGB">
<feFlood flood-opacity="0" result="BackgroundImageFix"/>
<feColorMatrix in="SourceAlpha" type="matrix" values="0 0 0 0 0 0 0 0 0 0 0 0 0 0 0 0 0 0 127 0" result="hardAlpha"/>
<feOffset dy="1.77159"/>
<feGaussianBlur stdDeviation="2.65739"/>
<feComposite in2="hardAlpha" operator="out"/>
<feColorMatrix type="matrix" values="0 0 0 0 0.413867 0 0 0 0 0.413867 0 0 0 0 0.413867 0 0 0 0.12 0"/>
<feBlend mode="normal" in2="BackgroundImageFix" result="effect1_dropShadow_72_9173"/>
<feBlend mode="normal" in="SourceGraphic" in2="effect1_dropShadow_72_9173" result="shape"/>
</filter>
<filter id="filter2_d_72_9173" x="256.429" y="13.0135" width="91.238" height="91.238" filterUnits="userSpaceOnUse" color-interpolation-filters="sRGB">
<feFlood flood-opacity="0" result="BackgroundImageFix"/>
<feColorMatrix in="SourceAlpha" type="matrix" values="0 0 0 0 0 0 0 0 0 0 0 0 0 0 0 0 0 0 127 0" result="hardAlpha"/>
<feOffset dy="1.77159"/>
<feGaussianBlur stdDeviation="2.65739"/>
<feComposite in2="hardAlpha" operator="out"/>
<feColorMatrix type="matrix" values="0 0 0 0 0.413867 0 0 0 0 0.413867 0 0 0 0 0.413867 0 0 0 0.12 0"/>
<feBlend mode="normal" in2="BackgroundImageFix" result="effect1_dropShadow_72_9173"/>
<feBlend mode="normal" in="SourceGraphic" in2="effect1_dropShadow_72_9173" result="shape"/>
</filter>
<filter id="filter3_d_72_9173" x="34.2419" y="114.735" width="91.238" height="91.238" filterUnits="userSpaceOnUse" color-interpolation-filters="sRGB">
<feFlood flood-opacity="0" result="BackgroundImageFix"/>
<feColorMatrix in="SourceAlpha" type="matrix" values="0 0 0 0 0 0 0 0 0 0 0 0 0 0 0 0 0 0 127 0" result="hardAlpha"/>
<feOffset dy="1.77159"/>
<feGaussianBlur stdDeviation="2.65739"/>
<feComposite in2="hardAlpha" operator="out"/>
<feColorMatrix type="matrix" values="0 0 0 0 0.413867 0 0 0 0 0.413867 0 0 0 0 0.413867 0 0 0 0.12 0"/>
<feBlend mode="normal" in2="BackgroundImageFix" result="effect1_dropShadow_72_9173"/>
<feBlend mode="normal" in="SourceGraphic" in2="effect1_dropShadow_72_9173" result="shape"/>
</filter>
<filter id="filter4_d_72_9173" x="145.336" y="114.735" width="91.238" height="91.238" filterUnits="userSpaceOnUse" color-interpolation-filters="sRGB">
<feFlood flood-opacity="0" result="BackgroundImageFix"/>
<feColorMatrix in="SourceAlpha" type="matrix" values="0 0 0 0 0 0 0 0 0 0 0 0 0 0 0 0 0 0 127 0" result="hardAlpha"/>
<feOffset dy="1.77159"/>
<feGaussianBlur stdDeviation="2.65739"/>
<feComposite in2="hardAlpha" operator="out"/>
<feColorMatrix type="matrix" values="0 0 0 0 0.413867 0 0 0 0 0.413867 0 0 0 0 0.413867 0 0 0 0.12 0"/>
<feBlend mode="normal" in2="BackgroundImageFix" result="effect1_dropShadow_72_9173"/>
<feBlend mode="normal" in="SourceGraphic" in2="effect1_dropShadow_72_9173" result="shape"/>
</filter>
<filter id="filter5_d_72_9173" x="256.429" y="114.735" width="91.238" height="91.238" filterUnits="userSpaceOnUse" color-interpolation-filters="sRGB">
<feFlood flood-opacity="0" result="BackgroundImageFix"/>
<feColorMatrix in="SourceAlpha" type="matrix" values="0 0 0 0 0 0 0 0 0 0 0 0 0 0 0 0 0 0 127 0" result="hardAlpha"/>
<feOffset dy="1.77159"/>
<feGaussianBlur stdDeviation="2.65739"/>
<feComposite in2="hardAlpha" operator="out"/>
<feColorMatrix type="matrix" values="0 0 0 0 0.413867 0 0 0 0 0.413867 0 0 0 0 0.413867 0 0 0 0.12 0"/>
<feBlend mode="normal" in2="BackgroundImageFix" result="effect1_dropShadow_72_9173"/>
<feBlend mode="normal" in="SourceGraphic" in2="effect1_dropShadow_72_9173" result="shape"/>
</filter>
<filter id="filter6_i_72_9173" x="279.595" y="127.812" width="17.8857" height="49.5039" filterUnits="userSpaceOnUse" color-interpolation-filters="sRGB">
<feFlood flood-opacity="0" result="BackgroundImageFix"/>
<feBlend mode="normal" in="SourceGraphic" in2="BackgroundImageFix" result="shape"/>
<feColorMatrix in="SourceAlpha" type="matrix" values="0 0 0 0 0 0 0 0 0 0 0 0 0 0 0 0 0 0 127 0" result="hardAlpha"/>
<feOffset/>
<feGaussianBlur stdDeviation="3.10029"/>
<feComposite in2="hardAlpha" operator="arithmetic" k2="-1" k3="1"/>
<feColorMatrix type="matrix" values="0 0 0 0 0 0 0 0 0 0 0 0 0 0 0 0 0 0 0.06 0"/>
<feBlend mode="normal" in2="shape" result="effect1_innerShadow_72_9173"/>
</filter>
<filter id="filter7_i_72_9173" x="297.574" y="135.287" width="11.4652" height="18.6864" filterUnits="userSpaceOnUse" color-interpolation-filters="sRGB">
<feFlood flood-opacity="0" result="BackgroundImageFix"/>
<feBlend mode="normal" in="SourceGraphic" in2="BackgroundImageFix" result="shape"/>
<feColorMatrix in="SourceAlpha" type="matrix" values="0 0 0 0 0 0 0 0 0 0 0 0 0 0 0 0 0 0 127 0" result="hardAlpha"/>
<feOffset dx="0.177159" dy="-1.59443"/>
<feGaussianBlur stdDeviation="0.620058"/>
<feComposite in2="hardAlpha" operator="arithmetic" k2="-1" k3="1"/>
<feColorMatrix type="matrix" values="0 0 0 0 0 0 0 0 0 0 0 0 0 0 0 0 0 0 0.09 0"/>
<feBlend mode="normal" in2="shape" result="effect1_innerShadow_72_9173"/>
</filter>
<filter id="filter8_d_72_9173" x="34.2419" y="216.457" width="91.238" height="91.238" filterUnits="userSpaceOnUse" color-interpolation-filters="sRGB">
<feFlood flood-opacity="0" result="BackgroundImageFix"/>
<feColorMatrix in="SourceAlpha" type="matrix" values="0 0 0 0 0 0 0 0 0 0 0 0 0 0 0 0 0 0 127 0" result="hardAlpha"/>
<feOffset dy="1.77159"/>
<feGaussianBlur stdDeviation="2.65739"/>
<feComposite in2="hardAlpha" operator="out"/>
<feColorMatrix type="matrix" values="0 0 0 0 0.413867 0 0 0 0 0.413867 0 0 0 0 0.413867 0 0 0 0.12 0"/>
<feBlend mode="normal" in2="BackgroundImageFix" result="effect1_dropShadow_72_9173"/>
<feBlend mode="normal" in="SourceGraphic" in2="effect1_dropShadow_72_9173" result="shape"/>
</filter>
<filter id="filter9_d_72_9173" x="145.336" y="216.457" width="91.238" height="91.238" filterUnits="userSpaceOnUse" color-interpolation-filters="sRGB">
<feFlood flood-opacity="0" result="BackgroundImageFix"/>
<feColorMatrix in="SourceAlpha" type="matrix" values="0 0 0 0 0 0 0 0 0 0 0 0 0 0 0 0 0 0 127 0" result="hardAlpha"/>
<feOffset dy="1.77159"/>
<feGaussianBlur stdDeviation="2.65739"/>
<feComposite in2="hardAlpha" operator="out"/>
<feColorMatrix type="matrix" values="0 0 0 0 0.413867 0 0 0 0 0.413867 0 0 0 0 0.413867 0 0 0 0.12 0"/>
<feBlend mode="normal" in2="BackgroundImageFix" result="effect1_dropShadow_72_9173"/>
<feBlend mode="normal" in="SourceGraphic" in2="effect1_dropShadow_72_9173" result="shape"/>
</filter>
<filter id="filter10_d_72_9173" x="256.429" y="216.457" width="91.238" height="91.238" filterUnits="userSpaceOnUse" color-interpolation-filters="sRGB">
<feFlood flood-opacity="0" result="BackgroundImageFix"/>
<feColorMatrix in="SourceAlpha" type="matrix" values="0 0 0 0 0 0 0 0 0 0 0 0 0 0 0 0 0 0 127 0" result="hardAlpha"/>
<feOffset dy="1.77159"/>
<feGaussianBlur stdDeviation="2.65739"/>
<feComposite in2="hardAlpha" operator="out"/>
<feColorMatrix type="matrix" values="0 0 0 0 0.413867 0 0 0 0 0.413867 0 0 0 0 0.413867 0 0 0 0.12 0"/>
<feBlend mode="normal" in2="BackgroundImageFix" result="effect1_dropShadow_72_9173"/>
<feBlend mode="normal" in="SourceGraphic" in2="effect1_dropShadow_72_9173" result="shape"/>
</filter>
<linearGradient id="paint0_linear_72_9173" x1="79.2969" y1="56.6676" x2="94.1302" y2="62.8886" gradientUnits="userSpaceOnUse">
<stop stop-color="#249361"/>
<stop offset="1" stop-color="#3ECF8E"/>
</linearGradient>
<linearGradient id="paint1_linear_72_9173" x1="72.7206" y1="47.6634" x2="79.4853" y2="60.3977" gradientUnits="userSpaceOnUse">
<stop/>
<stop offset="1" stop-opacity="0"/>
</linearGradient>
<linearGradient id="paint2_linear_72_9173" x1="190.077" y1="0" x2="190.077" y2="305.415" gradientUnits="userSpaceOnUse">
<stop stop-color="white" stop-opacity="0"/>
<stop offset="1" stop-color="white" stop-opacity="0.8"/>
</linearGradient>
<clipPath id="clip0_72_9173">
<rect width="40.2299" height="41.7063" fill="white" transform="translate(59.377 36.377)"/>
</clipPath>
<clipPath id="clip1_72_9173">
<rect width="47.2425" height="40.9681" fill="white" transform="translate(167.426 36.377)"/>
</clipPath>
<clipPath id="clip2_72_9173">
<rect width="29.5266" height="30.4493" fill="white" transform="translate(287.47 41.9131)"/>
</clipPath>
<clipPath id="clip3_72_9173">
<rect width="60.4704" height="51.7306" fill="white" transform="translate(49.9648 132.562)"/>
</clipPath>
<clipPath id="clip4_72_9173">
<rect width="30.2352" height="64.8403" fill="white" transform="translate(176.205 126.07)"/>
</clipPath>
<clipPath id="clip5_72_9173">
<rect width="45.3528" height="62.183" fill="white" transform="translate(279.371 127.58)"/>
</clipPath>
<clipPath id="clip6_72_9173">
<rect width="70.7161" height="36.2439" fill="white" transform="translate(44.6133 241.851)"/>
</clipPath>
<clipPath id="clip7_72_9173">
<rect width="51.6715" height="51.6715" fill="white" transform="translate(276.213 234.469)"/>
</clipPath>
</defs>
</svg>
