<svg width="382" height="137" viewBox="0 0 382 137" fill="none" xmlns="http://www.w3.org/2000/svg">
<rect x="169.25" y="52.25" width="169.5" height="73.5" rx="5.75" stroke="#EDEDED" stroke-width="0.5"/>
<rect x="176" y="58" width="24" height="24" rx="12" fill="#DDDDDD" fill-opacity="0.75"/>
<rect x="206" y="62" width="107" height="16" rx="4" fill="#DDDDDD" fill-opacity="0.75"/>
<rect x="176" y="90" width="70" height="6" rx="3" fill="#DDDDDD" fill-opacity="0.75"/>
<rect x="176" y="98" width="137" height="6" rx="3" fill="#DDDDDD" fill-opacity="0.75"/>
<rect width="382" height="134" transform="translate(0 3)" fill="url(#paint0_linear_79_1707)"/>
<rect x="36.25" y="0.25" width="169.5" height="73.5" rx="5.75" fill="white"/>
<rect x="36.25" y="0.25" width="169.5" height="73.5" rx="5.75" stroke="#EDEDED" stroke-width="0.5"/>
<rect x="43" y="6" width="24" height="24" rx="12" fill="#DDDDDD" fill-opacity="0.75"/>
<rect x="73" y="10" width="107" height="16" rx="4" fill="#DDDDDD" fill-opacity="0.75"/>
<rect x="43" y="38" width="70" height="6" rx="3" fill="#DDDDDD" fill-opacity="0.75"/>
<rect x="43" y="46" width="137" height="6" rx="3" fill="#DDDDDD" fill-opacity="0.75"/>
<defs>
<linearGradient id="paint0_linear_79_1707" x1="191" y1="-21" x2="191" y2="134" gradientUnits="userSpaceOnUse">
<stop stop-color="white" stop-opacity="0"/>
<stop offset="1" stop-color="white" stop-opacity="0.8"/>
</linearGradient>
</defs>
</svg>
