<svg width="300" height="134" viewBox="0 0 382 134" fill="none" xmlns="http://www.w3.org/2000/svg">
<rect x="52" y="43" width="91" height="27" rx="4" fill="#1866FF"/>
<path d="M72.004 61H71.116L71.02 59.656C70.648 60.568 69.616 61.192 68.464 61.192C66.016 61.192 64.552 59.236 64.552 56.752C64.552 54.256 66.016 52.288 68.5 52.288C70.36 52.288 71.584 53.416 71.968 55.156L70.6 55.228C70.336 54.148 69.628 53.488 68.488 53.488C66.688 53.488 65.92 54.988 65.92 56.752C65.92 58.504 66.7 59.992 68.488 59.992C69.844 59.992 70.6 59.044 70.708 57.784H68.488V56.644H72.004V61ZM73.2585 57.82C73.2585 55.792 74.4585 54.496 76.2945 54.496C77.8065 54.496 79.1025 55.504 79.1745 57.772V58.192H74.6265C74.6985 59.356 75.2985 60.04 76.2945 60.04C76.9185 60.04 77.4825 59.68 77.7465 59.08L79.0905 59.176C78.7065 60.388 77.5905 61.144 76.2945 61.144C74.4585 61.144 73.2585 59.848 73.2585 57.82ZM74.6385 57.22H77.8185C77.6625 56.02 77.0025 55.6 76.2945 55.6C75.3705 55.6 74.7825 56.2 74.6385 57.22ZM80.9233 53.2H82.2193V54.64H83.9113V55.696H82.2193V59.164C82.2193 59.68 82.4713 59.944 82.9513 59.944H83.8993V61H82.8313C81.5953 61 80.9233 60.364 80.9233 59.164V55.696H79.9633V54.64H80.9233V53.2ZM89.278 58.168C89.482 59.236 90.226 59.944 91.474 59.944C92.47 59.944 93.13 59.56 93.13 58.792C93.118 58.012 92.446 57.544 90.874 57.148C89.338 56.776 88.102 56.068 88.102 54.688C88.102 53.212 89.302 52.288 91.03 52.288C92.89 52.288 94.138 53.44 94.318 55.06L92.974 55.132C92.83 54.136 92.086 53.488 91.006 53.488C90.106 53.488 89.446 53.956 89.458 54.7C89.47 55.636 90.598 55.9 91.594 56.164C93.25 56.584 94.486 57.376 94.486 58.696C94.486 60.292 93.034 61.144 91.402 61.144C89.458 61.144 88.066 60.004 87.922 58.252L89.278 58.168ZM96.2866 53.2H97.5826V54.64H99.2746V55.696H97.5826V59.164C97.5826 59.68 97.8346 59.944 98.3146 59.944H99.2626V61H98.1946C96.9586 61 96.2866 60.364 96.2866 59.164V55.696H95.3266V54.64H96.2866V53.2ZM100.331 56.548C100.583 55.264 101.591 54.496 103.055 54.496C104.795 54.496 105.743 55.456 105.743 57.196V59.56C105.743 59.872 105.875 59.98 106.127 59.98H106.391V61H105.983C105.407 61.012 104.615 60.916 104.555 60.028C104.279 60.628 103.571 61.144 102.515 61.144C101.243 61.144 100.223 60.46 100.223 59.332C100.223 58.06 101.171 57.688 102.635 57.4L104.447 57.052C104.435 56.032 103.979 55.552 103.055 55.552C102.323 55.552 101.843 55.924 101.663 56.632L100.331 56.548ZM101.567 59.308C101.567 59.764 101.963 60.148 102.791 60.148C103.739 60.148 104.471 59.464 104.471 58.096V58.036L103.127 58.276C102.263 58.432 101.567 58.504 101.567 59.308ZM107.591 54.64H108.779L108.815 55.816C109.031 55.012 109.511 54.64 110.327 54.64H110.927V55.696H110.315C109.319 55.696 108.887 56.236 108.887 57.292V61H107.591V54.64ZM112.869 53.2H114.165V54.64H115.857V55.696H114.165V59.164C114.165 59.68 114.417 59.944 114.897 59.944H115.845V61H114.777C113.541 61 112.869 60.364 112.869 59.164V55.696H111.909V54.64H112.869V53.2ZM116.641 57.82C116.641 55.792 117.841 54.496 119.677 54.496C121.189 54.496 122.485 55.504 122.557 57.772V58.192H118.009C118.081 59.356 118.681 60.04 119.677 60.04C120.301 60.04 120.865 59.68 121.129 59.08L122.473 59.176C122.089 60.388 120.973 61.144 119.677 61.144C117.841 61.144 116.641 59.848 116.641 57.82ZM118.021 57.22H121.201C121.045 56.02 120.385 55.6 119.677 55.6C118.753 55.6 118.165 56.2 118.021 57.22ZM129.53 52.48V61H128.33L128.294 60.1C127.934 60.748 127.19 61.144 126.314 61.144C124.658 61.144 123.626 59.86 123.626 57.82C123.626 55.78 124.658 54.496 126.314 54.496C127.154 54.496 127.874 54.868 128.234 55.48V52.48H129.53ZM124.958 57.82C124.958 59.176 125.63 60.028 126.65 60.028C127.682 60.028 128.33 59.176 128.33 57.82C128.33 56.44 127.682 55.576 126.65 55.576C125.618 55.576 124.958 56.44 124.958 57.82Z" fill="white"/>
<rect x="151.5" y="43.5" width="85" height="26" rx="3.5" stroke="#1866FF"/>
<path d="M165.028 58.168C165.232 59.236 165.976 59.944 167.224 59.944C168.22 59.944 168.88 59.56 168.88 58.792C168.868 58.012 168.196 57.544 166.624 57.148C165.088 56.776 163.852 56.068 163.852 54.688C163.852 53.212 165.052 52.288 166.78 52.288C168.64 52.288 169.888 53.44 170.068 55.06L168.724 55.132C168.58 54.136 167.836 53.488 166.756 53.488C165.856 53.488 165.196 53.956 165.208 54.7C165.22 55.636 166.348 55.9 167.344 56.164C169 56.584 170.236 57.376 170.236 58.696C170.236 60.292 168.784 61.144 167.152 61.144C165.208 61.144 163.816 60.004 163.672 58.252L165.028 58.168ZM171.438 57.82C171.438 55.792 172.638 54.496 174.474 54.496C175.986 54.496 177.282 55.504 177.354 57.772V58.192H172.806C172.878 59.356 173.478 60.04 174.474 60.04C175.098 60.04 175.662 59.68 175.926 59.08L177.27 59.176C176.886 60.388 175.77 61.144 174.474 61.144C172.638 61.144 171.438 59.848 171.438 57.82ZM172.818 57.22H175.998C175.842 56.02 175.182 55.6 174.474 55.6C173.55 55.6 172.962 56.2 172.818 57.22ZM182.923 56.872C182.803 56.08 182.179 55.612 181.459 55.612C180.379 55.612 179.767 56.44 179.767 57.82C179.767 59.2 180.379 60.028 181.459 60.028C182.215 60.028 182.827 59.536 182.959 58.66L184.315 58.732C184.123 60.22 182.923 61.144 181.459 61.144C179.623 61.144 178.423 59.848 178.423 57.82C178.423 55.792 179.623 54.496 181.459 54.496C182.875 54.496 184.099 55.372 184.267 56.8L182.923 56.872ZM188.291 61.144C186.455 61.144 185.255 59.848 185.255 57.82C185.255 55.792 186.455 54.496 188.291 54.496C190.127 54.496 191.327 55.792 191.327 57.82C191.327 59.848 190.127 61.144 188.291 61.144ZM186.599 57.82C186.599 59.2 187.211 60.028 188.291 60.028C189.371 60.028 189.983 59.2 189.983 57.82C189.983 56.44 189.371 55.612 188.291 55.612C187.211 55.612 186.599 56.44 186.599 57.82ZM192.681 54.64H193.845L193.881 55.732C194.217 54.868 194.949 54.496 195.813 54.496C197.253 54.496 197.985 55.516 197.985 56.908V61H196.689V57.304C196.689 56.188 196.353 55.588 195.477 55.588C194.553 55.588 193.977 56.188 193.977 57.304V61H192.681V54.64ZM205.151 52.48V61H203.951L203.915 60.1C203.555 60.748 202.811 61.144 201.935 61.144C200.279 61.144 199.247 59.86 199.247 57.82C199.247 55.78 200.279 54.496 201.935 54.496C202.775 54.496 203.495 54.868 203.855 55.48V52.48H205.151ZM200.579 57.82C200.579 59.176 201.251 60.028 202.271 60.028C203.303 60.028 203.951 59.176 203.951 57.82C203.951 56.44 203.303 55.576 202.271 55.576C201.239 55.576 200.579 56.44 200.579 57.82ZM206.691 56.548C206.943 55.264 207.951 54.496 209.415 54.496C211.155 54.496 212.103 55.456 212.103 57.196V59.56C212.103 59.872 212.235 59.98 212.487 59.98H212.751V61H212.343C211.767 61.012 210.975 60.916 210.915 60.028C210.639 60.628 209.931 61.144 208.875 61.144C207.603 61.144 206.583 60.46 206.583 59.332C206.583 58.06 207.531 57.688 208.995 57.4L210.807 57.052C210.795 56.032 210.339 55.552 209.415 55.552C208.683 55.552 208.203 55.924 208.023 56.632L206.691 56.548ZM207.927 59.308C207.927 59.764 208.323 60.148 209.151 60.148C210.099 60.148 210.831 59.464 210.831 58.096V58.036L209.487 58.276C208.623 58.432 207.927 58.504 207.927 59.308ZM213.951 54.64H215.139L215.175 55.816C215.391 55.012 215.871 54.64 216.687 54.64H217.287V55.696H216.675C215.679 55.696 215.247 56.236 215.247 57.292V61H213.951V54.64ZM218.096 54.64H219.404L221.192 59.632L222.932 54.64H224.228L221.684 61.744C221.42 62.464 220.94 62.8 220.148 62.8H219.2V61.756H219.956C220.292 61.756 220.472 61.636 220.592 61.336L220.796 60.808H220.4L218.096 54.64Z" fill="#1866FF"/>
<path d="M257.264 52.48H258.668L261.164 59.524L263.648 52.48H265.052L261.98 61H260.336L257.264 52.48ZM266.232 54.64H267.528V61H266.232V54.64ZM266.208 53.704V52.48H267.552V53.704H266.208ZM268.942 57.82C268.942 55.792 270.142 54.496 271.978 54.496C273.49 54.496 274.786 55.504 274.858 57.772V58.192H270.31C270.382 59.356 270.982 60.04 271.978 60.04C272.602 60.04 273.166 59.68 273.43 59.08L274.774 59.176C274.39 60.388 273.274 61.144 271.978 61.144C270.142 61.144 268.942 59.848 268.942 57.82ZM270.322 57.22H273.502C273.346 56.02 272.686 55.6 271.978 55.6C271.054 55.6 270.466 56.2 270.322 57.22ZM280.674 54.64L282.078 59.536L283.47 54.64H284.778L282.834 61H281.394L280.062 56.476L278.73 61H277.29L275.346 54.64H276.654L278.046 59.536L279.45 54.64H280.674ZM288.993 52.48H290.781L293.301 59.452L295.821 52.48H297.609V61H296.301V54.892L294.033 60.988H292.569L290.313 54.892V61H288.993V52.48ZM301.978 61.144C300.142 61.144 298.942 59.848 298.942 57.82C298.942 55.792 300.142 54.496 301.978 54.496C303.814 54.496 305.014 55.792 305.014 57.82C305.014 59.848 303.814 61.144 301.978 61.144ZM300.286 57.82C300.286 59.2 300.898 60.028 301.978 60.028C303.058 60.028 303.67 59.2 303.67 57.82C303.67 56.44 303.058 55.612 301.978 55.612C300.898 55.612 300.286 56.44 300.286 57.82ZM306.369 54.64H307.557L307.593 55.816C307.809 55.012 308.289 54.64 309.105 54.64H309.705V55.696H309.093C308.097 55.696 307.665 56.236 307.665 57.292V61H306.369V54.64ZM310.298 57.82C310.298 55.792 311.498 54.496 313.334 54.496C314.846 54.496 316.142 55.504 316.214 57.772V58.192H311.666C311.738 59.356 312.338 60.04 313.334 60.04C313.958 60.04 314.522 59.68 314.786 59.08L316.13 59.176C315.746 60.388 314.63 61.144 313.334 61.144C311.498 61.144 310.298 59.848 310.298 57.82ZM311.678 57.22H314.858C314.702 56.02 314.042 55.6 313.334 55.6C312.41 55.6 311.822 56.2 311.678 57.22Z" fill="#1866FF"/>
<path d="M257 62.5H316.754V63.1H257V62.5Z" fill="#1866FF"/>
<rect width="382" height="134" fill="url(#paint0_linear_79_1706)"/>
<defs>
<linearGradient id="paint0_linear_79_1706" x1="191" y1="-21" x2="191" y2="134" gradientUnits="userSpaceOnUse">
<stop stop-color="white" stop-opacity="0"/>
<stop offset="1" stop-color="white" stop-opacity="0.8"/>
</linearGradient>
</defs>
</svg>
