<svg width="382" height="134" viewBox="0 0 382 134" fill="none" xmlns="http://www.w3.org/2000/svg">
<rect x="29.5" y="42.9199" width="89" height="27" rx="3.92" fill="#E6F4FE"/>
<path d="M42.9426 50.7871H44.3224V61.9199H42.9426V50.7871ZM46.7969 53.6095H48.0199L48.067 55.0364C48.4903 53.9231 49.4625 53.4214 50.6071 53.4214C52.5044 53.4214 53.4139 54.8169 53.4139 56.573V61.9199H52.0654V56.9494C52.0654 55.4284 51.5636 54.613 50.3249 54.613C49.0078 54.613 48.1454 55.4284 48.1454 56.9494V61.9199H46.7969V53.6095ZM59.8431 53.6095H61.0348L61.0819 55.0991C61.3484 54.0799 61.9599 53.6095 63.0419 53.6095H63.8572V54.8012H63.0419C61.7718 54.8012 61.1916 55.5382 61.1916 56.965V61.9199H59.8431V53.6095ZM64.7004 57.7647C64.7004 55.1148 66.2057 53.4214 68.5106 53.4214C70.3295 53.4214 71.9759 54.5974 72.117 57.5766L72.1327 58.1881H66.1273C66.2527 59.8502 67.0994 60.8223 68.5106 60.8223C69.3887 60.8223 70.1884 60.3206 70.5647 59.4582L72.0073 59.5679C71.5212 61.1359 70.11 62.1081 68.5106 62.1081C66.2057 62.1081 64.7004 60.4146 64.7004 57.7647ZM66.1586 56.9964H70.6588C70.4236 55.2716 69.4985 54.7071 68.5106 54.7071C67.2092 54.7071 66.3782 55.5538 66.1586 56.9964ZM80.5681 53.6095L77.5418 61.9199H75.8484L72.8221 53.6095H74.2647L76.6951 60.5087L79.1255 53.6095H80.5681ZM82.1688 53.6095H83.5173V61.9199H82.1688V53.6095ZM82.1374 52.3081V50.7871H83.5486V52.3081H82.1374ZM85.5101 57.7647C85.5101 55.1148 87.0154 53.4214 89.3203 53.4214C91.1392 53.4214 92.7856 54.5974 92.9267 57.5766L92.9424 58.1881H86.937C87.0624 59.8502 87.9091 60.8223 89.3203 60.8223C90.1984 60.8223 90.9981 60.3206 91.3744 59.4582L92.817 59.5679C92.3309 61.1359 90.9197 62.1081 89.3203 62.1081C87.0154 62.1081 85.5101 60.4146 85.5101 57.7647ZM86.9683 56.9964H91.4685C91.2333 55.2716 90.3082 54.7071 89.3203 54.7071C88.0189 54.7071 87.1878 55.5538 86.9683 56.9964ZM100.437 53.6095L102.397 60.4303L104.357 53.6095H105.8L103.244 61.9199H101.55L99.7157 55.6479L97.8811 61.9199H96.1877L93.6318 53.6095H95.0744L97.0344 60.4303L98.9944 53.6095H100.437Z" fill="#0258A9"/>
<rect x="134.5" y="42.9199" width="95" height="27" rx="3.92" fill="#E6F7EB"/>
<path d="M156.817 58.2508C156.41 60.5871 154.889 62.1708 152.317 62.1708C149.103 62.1708 147.268 59.5836 147.268 56.3692C147.268 53.1391 149.087 50.5362 152.317 50.5362C154.685 50.5362 156.237 52.0102 156.723 54.2054L155.265 54.2994C154.904 52.7471 153.838 51.8847 152.317 51.8847C149.777 51.8847 148.711 53.9858 148.711 56.3692C148.711 58.7369 149.793 60.8223 152.317 60.8223C153.932 60.8223 155.014 59.8658 155.344 58.1567L156.817 58.2508ZM162.057 62.1081C159.752 62.1081 158.247 60.4146 158.247 57.7647C158.247 55.1148 159.752 53.4214 162.057 53.4214C164.362 53.4214 165.867 55.1148 165.867 57.7647C165.867 60.4146 164.362 62.1081 162.057 62.1081ZM159.658 57.7647C159.658 59.6777 160.536 60.8223 162.057 60.8223C163.578 60.8223 164.456 59.6777 164.456 57.7647C164.456 55.8518 163.578 54.7071 162.057 54.7071C160.536 54.7071 159.658 55.8518 159.658 57.7647ZM167.783 53.6095H169.006L169.053 54.9894C169.445 53.9858 170.292 53.4214 171.437 53.4214C172.644 53.4214 173.506 54.0486 173.867 55.1462C174.228 54.0329 175.09 53.4214 176.391 53.4214C178.069 53.4214 179.041 54.566 179.041 56.573V61.9199H177.693V56.9494C177.693 55.4598 177.113 54.613 176.109 54.613C174.823 54.613 174.087 55.4598 174.087 56.9494V61.9199H172.738V56.9494C172.738 55.4911 172.142 54.613 171.154 54.613C169.884 54.613 169.132 55.4911 169.132 56.9494V61.9199H167.783V53.6095ZM181.243 64.2719V53.6095H182.466L182.513 54.8169C182.968 53.9231 183.846 53.4214 185.053 53.4214C187.546 53.4214 188.644 55.4911 188.644 57.7647C188.644 60.0383 187.546 62.1081 185.053 62.1081C183.908 62.1081 183.046 61.669 182.591 60.8066V64.2719H181.243ZM182.435 57.7647C182.435 59.3014 183.124 60.8223 184.818 60.8223C186.527 60.8223 187.201 59.317 187.201 57.7647C187.201 56.2124 186.527 54.7071 184.818 54.7071C183.124 54.7071 182.435 56.2281 182.435 57.7647ZM190.629 50.7871H191.978V60.2265C191.978 60.5714 192.135 60.7282 192.48 60.7282H193.201V61.9199H192.26C191.288 61.9199 190.629 61.2614 190.629 60.2892V50.7871ZM194.415 57.7647C194.415 55.1148 195.92 53.4214 198.225 53.4214C200.044 53.4214 201.69 54.5974 201.831 57.5766L201.847 58.1881H195.842C195.967 59.8502 196.814 60.8223 198.225 60.8223C199.103 60.8223 199.903 60.3206 200.279 59.4582L201.722 59.5679C201.236 61.1359 199.824 62.1081 198.225 62.1081C195.92 62.1081 194.415 60.4146 194.415 57.7647ZM195.873 56.9964H200.373C200.138 55.2716 199.213 54.7071 198.225 54.7071C196.924 54.7071 196.093 55.5538 195.873 56.9964ZM204.185 51.7279H205.533V53.6095H207.76V54.8012H205.533V59.6934C205.533 60.3833 205.863 60.7282 206.521 60.7282H207.728V61.9199H206.521C205.016 61.9199 204.185 61.1202 204.185 59.6934V54.8012H202.977V53.6095H204.185V51.7279ZM208.854 57.7647C208.854 55.1148 210.36 53.4214 212.665 53.4214C214.484 53.4214 216.13 54.5974 216.271 57.5766L216.287 58.1881H210.281C210.407 59.8502 211.253 60.8223 212.665 60.8223C213.543 60.8223 214.342 60.3206 214.719 59.4582L216.161 59.5679C215.675 61.1359 214.264 62.1081 212.665 62.1081C210.36 62.1081 208.854 60.4146 208.854 57.7647ZM210.313 56.9964H214.813C214.578 55.2716 213.653 54.7071 212.665 54.7071C211.363 54.7071 210.532 55.5538 210.313 56.9964Z" fill="#00814E"/>
<rect x="245.5" y="42.9199" width="106" height="27" rx="3.92" fill="#FFEED6"/>
<path d="M258.943 50.7871H260.322V61.9199H258.943V50.7871ZM262.797 53.6095H264.02L264.067 55.0364C264.49 53.9231 265.462 53.4214 266.607 53.4214C268.504 53.4214 269.414 54.8169 269.414 56.573V61.9199H268.065V56.9494C268.065 55.4284 267.564 54.613 266.325 54.613C265.008 54.613 264.145 55.4284 264.145 56.9494V61.9199H262.797V53.6095ZM275.843 64.2719V53.6095H277.066L277.113 54.8169C277.568 53.9231 278.446 53.4214 279.653 53.4214C282.147 53.4214 283.244 55.4911 283.244 57.7647C283.244 60.0383 282.147 62.1081 279.653 62.1081C278.509 62.1081 277.646 61.669 277.192 60.8066V64.2719H275.843ZM277.035 57.7647C277.035 59.3014 277.725 60.8223 279.418 60.8223C281.127 60.8223 281.802 59.317 281.802 57.7647C281.802 56.2124 281.127 54.7071 279.418 54.7071C277.725 54.7071 277.035 56.2281 277.035 57.7647ZM285.153 53.6095H286.345L286.392 55.0991C286.658 54.0799 287.27 53.6095 288.352 53.6095H289.167V54.8012H288.352C287.082 54.8012 286.502 55.5382 286.502 56.965V61.9199H285.153V53.6095ZM293.821 62.1081C291.516 62.1081 290.01 60.4146 290.01 57.7647C290.01 55.1148 291.516 53.4214 293.821 53.4214C296.126 53.4214 297.631 55.1148 297.631 57.7647C297.631 60.4146 296.126 62.1081 293.821 62.1081ZM291.422 57.7647C291.422 59.6777 292.3 60.8223 293.821 60.8223C295.342 60.8223 296.22 59.6777 296.22 57.7647C296.22 55.8518 295.342 54.7071 293.821 54.7071C292.3 54.7071 291.422 55.8518 291.422 57.7647ZM302.775 61.4809C300.627 61.4809 299.106 59.8188 299.106 57.4511C299.106 55.0834 300.611 53.4214 302.759 53.4214C303.888 53.4214 304.829 53.9858 305.206 54.8953V53.6095H306.491V61.1046C306.491 63.2998 304.986 64.4601 302.807 64.4601C301.035 64.4601 299.718 63.5036 299.326 62.0454L300.737 61.9513C301.082 62.7196 301.787 63.1743 302.807 63.1743C304.265 63.1743 305.143 62.5628 305.143 61.4182V60.054C304.735 60.9321 303.826 61.4809 302.775 61.4809ZM300.517 57.4511C300.517 59.1446 301.411 60.1951 302.854 60.1951C304.249 60.1951 305.143 59.1446 305.159 57.4511C305.19 55.7577 304.296 54.7071 302.854 54.7071C301.411 54.7071 300.517 55.7577 300.517 57.4511ZM308.995 53.6095H310.186L310.233 55.0991C310.5 54.0799 311.112 53.6095 312.193 53.6095H313.009V54.8012H312.193C310.923 54.8012 310.343 55.5382 310.343 56.965V61.9199H308.995V53.6095ZM313.852 57.7647C313.852 55.1148 315.357 53.4214 317.662 53.4214C319.481 53.4214 321.127 54.5974 321.269 57.5766L321.284 58.1881H315.279C315.404 59.8502 316.251 60.8223 317.662 60.8223C318.54 60.8223 319.34 60.3206 319.716 59.4582L321.159 59.5679C320.673 61.1359 319.262 62.1081 317.662 62.1081C315.357 62.1081 313.852 60.4146 313.852 57.7647ZM315.31 56.9964H319.81C319.575 55.2716 318.65 54.7071 317.662 54.7071C316.361 54.7071 315.53 55.5538 315.31 56.9964ZM328.048 56.181C327.86 55.2559 326.935 54.7071 326.025 54.7071C325.116 54.7071 324.379 55.1618 324.379 55.9458C324.379 56.7612 325.461 57.0905 326.339 57.263C328.22 57.6236 329.616 58.141 329.616 59.8031C329.616 61.4182 327.938 62.1081 326.37 62.1081C324.395 62.1081 322.889 61.0262 322.764 59.3014L324.175 59.2073C324.348 60.1951 325.132 60.8223 326.37 60.8223C327.154 60.8223 328.205 60.5714 328.205 59.7247C328.205 58.7369 327.044 58.6428 326.104 58.4233C324.598 58.0783 322.968 57.655 322.968 56.0242C322.968 54.4249 324.253 53.4214 326.166 53.4214C327.828 53.4214 329.193 54.4719 329.459 56.087L328.048 56.181ZM336.378 56.181C336.19 55.2559 335.265 54.7071 334.355 54.7071C333.446 54.7071 332.709 55.1618 332.709 55.9458C332.709 56.7612 333.791 57.0905 334.669 57.263C336.55 57.6236 337.946 58.141 337.946 59.8031C337.946 61.4182 336.268 62.1081 334.7 62.1081C332.725 62.1081 331.219 61.0262 331.094 59.3014L332.505 59.2073C332.678 60.1951 333.462 60.8223 334.7 60.8223C335.484 60.8223 336.535 60.5714 336.535 59.7247C336.535 58.7369 335.374 58.6428 334.434 58.4233C332.928 58.0783 331.298 57.655 331.298 56.0242C331.298 54.4249 332.583 53.4214 334.496 53.4214C336.158 53.4214 337.523 54.4719 337.789 56.087L336.378 56.181Z" fill="#C45A00"/>
<rect width="382" height="134" fill="url(#paint0_linear_80_1710)"/>
<defs>
<linearGradient id="paint0_linear_80_1710" x1="191" y1="-21" x2="191" y2="134" gradientUnits="userSpaceOnUse">
<stop stop-color="white" stop-opacity="0"/>
<stop offset="1" stop-color="white" stop-opacity="0.8"/>
</linearGradient>
</defs>
</svg>
