<svg width="382" height="140" viewBox="0 0 382 140" fill="none" xmlns="http://www.w3.org/2000/svg">
<rect width="382" height="134" transform="translate(0 6)" fill="url(#paint0_linear_79_1708)"/>
<rect x="16" width="87.5" height="15" rx="5" fill="#DDDDDD" fill-opacity="0.75"/>
<rect x="16" y="20" width="156" height="9" rx="4.5" fill="#DDDDDD" fill-opacity="0.75"/>
<circle cx="307" cy="24.5" r="4" fill="#1866FF"/>
<rect x="317" y="21.5" width="35" height="6" rx="2" fill="#DDDDDD" fill-opacity="0.75"/>
<path d="M87 121C100.245 121 100.245 91.7487 113.49 91.7487C126.735 91.7487 140.759 87.0813 154.004 87.0813C167.249 87.0813 173.092 81.8076 186.337 81.8076C199.582 81.8076 209.711 50.5461 222.956 50.5461C236.201 50.5461 229.578 50.2928 242.823 50.2928C256.068 50.2928 267.755 49 281 49" stroke="#1866FF"/>
<path d="M113.49 91.7487C100.245 91.7487 100.245 121 87 121H281V49C267.755 49 256.068 50.2928 242.823 50.2928C229.578 50.2928 236.201 50.5461 222.956 50.5461C209.711 50.5461 199.582 81.8076 186.337 81.8076C173.092 81.8076 167.249 87.0813 154.004 87.0813C140.759 87.0813 126.735 91.7487 113.49 91.7487Z" fill="url(#paint1_linear_79_1708)" fill-opacity="0.33"/>
<defs>
<linearGradient id="paint0_linear_79_1708" x1="191" y1="-21" x2="191" y2="134" gradientUnits="userSpaceOnUse">
<stop stop-color="white" stop-opacity="0"/>
<stop offset="1" stop-color="white" stop-opacity="0.8"/>
</linearGradient>
<linearGradient id="paint1_linear_79_1708" x1="184" y1="49" x2="184" y2="121" gradientUnits="userSpaceOnUse">
<stop stop-color="#1866FF"/>
<stop offset="1" stop-color="#1866FF" stop-opacity="0"/>
</linearGradient>
</defs>
</svg>
