<svg width="1440" height="1132" viewBox="0 0 1440 1132" fill="none" xmlns="http://www.w3.org/2000/svg">
<mask id="mask0_64_6808" style="mask-type:alpha" maskUnits="userSpaceOnUse" x="0" y="0" width="1440" height="1132">
<g clip-path="url(#clip0_64_6808)">
<path d="M811.428 344.285C811.428 511.154 701.099 646.428 565 646.428C428.901 646.428 -421.429 61.1541 -421.429 -105.715C-421.429 -272.584 800.33 -42.8578 936.428 -42.8578C1072.53 -42.8578 811.428 177.416 811.428 344.285Z" fill="url(#paint0_linear_64_6808)"/>
<path d="M907.141 1059.34C907.141 1226.21 796.811 1361.48 660.712 1361.48C524.614 1361.48 -233.573 1322.58 -233.573 1155.72C-233.573 988.846 -177.529 593.572 -41.4304 593.572C94.6684 593.572 907.141 892.468 907.141 1059.34Z" fill="url(#paint1_radial_64_6808)"/>
<path d="M1186.69 344.743C1553.9 676.406 1384.27 509.732 1699.68 501.335C1749.16 510.866 1833.16 511.319 1773.31 436.88C1698.51 343.832 1722.61 278.111 1629.13 176.734C1535.64 75.3566 1478.7 -27.6406 1337.56 -188.878C1196.42 -350.115 1185.56 -217.203 1026.44 -229.802C867.325 -242.402 939.899 -222.393 720.356 11.5554C500.813 245.504 819.468 13.0804 1186.69 344.743Z" fill="#D9D9D9"/>
<path d="M840 866.429C348.571 924.286 585.714 906.429 384.286 1149.29C344.524 1180.24 288.857 1243.14 384.286 1247.14C503.572 1252.14 537.143 1313.57 675 1310C812.857 1306.43 927.857 1331.43 1142.14 1331.43C1356.43 1331.43 1263.57 1235.71 1377.86 1124.29C1492.14 1012.86 1429.29 1054.29 1397.86 735C1366.43 415.715 1331.43 808.572 840 866.429Z" fill="#D9D9D9"/>
</g>
</mask>
<g mask="url(#mask0_64_6808)">
<g opacity="0.09">
<line x1="-84.2832" y1="690.715" x2="1628.57" y2="690.715" stroke="#222020" stroke-width="1.42857"/>
<line x1="-84.2832" y1="1056.43" x2="1628.57" y2="1056.43" stroke="#222020" stroke-width="1.42857"/>
<line x1="-84.2832" y1="325.001" x2="1628.57" y2="325.001" stroke="#222020" stroke-width="1.42857"/>
<line x1="-84.2832" y1="507.857" x2="1628.57" y2="507.857" stroke="#222020" stroke-width="1.42857"/>
<line x1="-84.2832" y1="873.57" x2="1628.57" y2="873.57" stroke="#222020" stroke-width="1.42857"/>
<line x1="-84.2832" y1="142.143" x2="1628.57" y2="142.143" stroke="#222020" stroke-width="1.42857"/>
<line x1="-84.2832" y1="599.286" x2="1628.57" y2="599.286" stroke="#222020" stroke-width="1.42857"/>
<line x1="-84.2832" y1="964.999" x2="1628.57" y2="964.999" stroke="#222020" stroke-width="1.42857"/>
<line x1="-84.2832" y1="233.572" x2="1628.57" y2="233.572" stroke="#222020" stroke-width="1.42857"/>
<line x1="-84.2832" y1="416.427" x2="1628.57" y2="416.427" stroke="#222020" stroke-width="1.42857"/>
<line x1="-84.2832" y1="782.144" x2="1628.57" y2="782.144" stroke="#222020" stroke-width="1.42857"/>
<line x1="-84.2832" y1="50.7134" x2="1628.57" y2="50.7134" stroke="#222020" stroke-width="1.42857"/>
<line x1="700.719" y1="-72.8564" x2="700.719" y2="1250" stroke="#222020" stroke-width="1.42857"/>
<line x1="335.003" y1="-72.8564" x2="335.003" y2="1250" stroke="#222020" stroke-width="1.42857"/>
<line x1="1066.43" y1="-72.8564" x2="1066.43" y2="1250" stroke="#222020" stroke-width="1.42857"/>
<line x1="1432.15" y1="-72.8564" x2="1432.15" y2="1250" stroke="#222020" stroke-width="1.42857"/>
<line x1="152.145" y1="-72.8564" x2="152.145" y2="1250" stroke="#222020" stroke-width="1.42857"/>
<line x1="883.573" y1="-72.8564" x2="883.573" y2="1250" stroke="#222020" stroke-width="1.42857"/>
<line x1="517.862" y1="-72.8564" x2="517.862" y2="1250" stroke="#222020" stroke-width="1.42857"/>
<line x1="1249.29" y1="-72.8564" x2="1249.29" y2="1250" stroke="#222020" stroke-width="1.42857"/>
<line x1="60.7182" y1="-72.8564" x2="60.7181" y2="1250" stroke="#222020" stroke-width="1.42857"/>
<line x1="792.147" y1="-72.8564" x2="792.147" y2="1250" stroke="#222020" stroke-width="1.42857"/>
<line x1="426.429" y1="-72.8564" x2="426.429" y2="1250" stroke="#222020" stroke-width="1.42857"/>
<line x1="1157.86" y1="-72.8564" x2="1157.86" y2="1250" stroke="#222020" stroke-width="1.42857"/>
<line x1="243.577" y1="-72.8564" x2="243.577" y2="1250" stroke="#222020" stroke-width="1.42857"/>
<line x1="975.004" y1="-72.8564" x2="975.004" y2="1250" stroke="#222020" stroke-width="1.42857"/>
<line x1="609.288" y1="-72.8564" x2="609.287" y2="1250" stroke="#222020" stroke-width="1.42857"/>
<line x1="1340.72" y1="-72.8564" x2="1340.72" y2="1250" stroke="#222020" stroke-width="1.42857"/>
</g>
<g opacity="0.5">
<rect x="883.64" y="873.506" width="90.9091" height="90.9091" fill="#005CE6" fill-opacity="0.5"/>
<rect x="426.496" y="873.506" width="90.9091" height="90.9091" fill="#005CE6" fill-opacity="0.15"/>
<rect x="1249.87" y="234.545" width="90.9091" height="89.6104" fill="#005CE6" fill-opacity="0.25"/>
<rect x="517.406" y="508.514" width="90.9091" height="89.6104" fill="#005CE6" fill-opacity="0.15"/>
<rect x="1157.67" y="325.454" width="90.9091" height="89.6104" fill="#005CE6" fill-opacity="0.25"/>
<rect x="426.331" y="234.545" width="90.9091" height="89.6104" fill="#005CE6" fill-opacity="0.15"/>
<rect x="1157.67" y="234.545" width="90.9091" height="89.6104" fill="#005CE6" fill-opacity="0.25"/>
<rect x="426.331" y="508.514" width="90.9091" height="89.6104" fill="#005CE6" fill-opacity="0.15"/>
<rect x="335.588" y="873.506" width="90.9091" height="90.9091" fill="#005CE6" fill-opacity="0.15"/>
<rect x="335.588" y="964.416" width="90.9091" height="92.2078" fill="#005CE6" fill-opacity="0.15"/>
<rect x="152.471" y="782.597" width="90.9091" height="90.9091" fill="#005CE6" fill-opacity="0.15"/>
<rect x="1066.76" y="51.4282" width="90.9091" height="90.9091" fill="#005CE6" fill-opacity="0.15"/>
<rect x="974.854" y="-40.0034" width="90.9091" height="90.0932" fill="#005CE6" fill-opacity="0.15"/>
<rect x="974.854" y="50.9419" width="90.9091" height="90.685" fill="#005CE6" fill-opacity="0.15"/>
<rect x="152.471" y="141.039" width="92.2078" height="93.5065" fill="#005CE6" fill-opacity="0.15"/>
<rect x="60.2627" y="50.1299" width="92.2078" height="90.9091" fill="#005CE6" fill-opacity="0.15"/>
<rect x="-30.6465" y="51.4282" width="92.2078" height="90.9091" fill="#005CE6" fill-opacity="0.15"/>
<rect x="60.2627" y="141.039" width="92.2078" height="93.5065" fill="#005CE6" fill-opacity="0.15"/>
<rect x="426.497" y="-40.7793" width="92.2078" height="90.9091" fill="#005CE6" fill-opacity="0.25"/>
<rect x="152.471" y="324.156" width="90.9091" height="92.2078" fill="#005CE6" fill-opacity="0.15"/>
<rect x="1249.87" y="782.597" width="90.9091" height="90.9091" fill="#005CE6" fill-opacity="0.15"/>
<rect x="1340.78" y="873.506" width="90.9091" height="90.9091" fill="#005CE6" fill-opacity="0.15"/>
</g>
</g>
<defs>
<linearGradient id="paint0_linear_64_6808" x1="167.143" y1="-22.1433" x2="682.143" y2="252.142" gradientUnits="userSpaceOnUse">
<stop stop-color="white"/>
<stop offset="1" stop-color="white" stop-opacity="0"/>
</linearGradient>
<radialGradient id="paint1_radial_64_6808" cx="0" cy="0" r="1" gradientUnits="userSpaceOnUse" gradientTransform="translate(127.855 1066.43) rotate(-29.3932) scale(880.486 1513.3)">
<stop stop-color="white"/>
<stop offset="1" stop-color="white" stop-opacity="0"/>
</radialGradient>
<clipPath id="clip0_64_6808">
<rect width="1440" height="1131.43" fill="white"/>
</clipPath>
</defs>
</svg>
