<svg width="139" height="28" viewBox="0 0 139 28" fill="none" xmlns="http://www.w3.org/2000/svg">
<g clip-path="url(#clip0_1_3277)">
<path d="M8.39999 5.59998C13.0393 5.59998 16.8 9.36066 16.8 14V19.88C16.8 20.5483 16.5345 21.1893 16.0619 21.6619C15.5893 22.1345 14.9483 22.4 14.28 22.4H8.81999V18.7149C8.81999 17.8741 8.87123 17.003 9.31223 16.2873C9.62796 15.7744 10.0503 15.3354 10.5506 15.0001C11.0509 14.6648 11.6175 14.441 12.2119 14.344L12.3728 14.3179C12.4391 14.2952 12.4967 14.2524 12.5374 14.1954C12.5782 14.1384 12.6001 14.0701 12.6001 14C12.6001 13.9299 12.5782 13.8616 12.5374 13.8046C12.4967 13.7475 12.4391 13.7047 12.3728 13.682L12.2119 13.656C11.3434 13.5141 10.5414 13.103 9.91918 12.4808C9.29693 11.8585 8.88584 11.0565 8.74397 10.1881L8.71793 10.0272C8.69526 9.96088 8.65243 9.90331 8.59542 9.86255C8.5384 9.82179 8.47008 9.79987 8.39999 9.79987C8.32991 9.79987 8.26158 9.82179 8.20457 9.86255C8.14756 9.90331 8.10472 9.96088 8.08205 10.0272L8.05601 10.1881C7.95896 10.7825 7.73519 11.3491 7.39989 11.8494C7.06458 12.3497 6.62558 12.772 6.11267 13.0877C5.39699 13.5287 4.52591 13.58 3.68507 13.58H0.0100708C0.229731 9.13596 3.90179 5.59998 8.39999 5.59998Z" fill="#1866FF"/>
<path d="M0 14.42H3.68508C4.52592 14.42 5.397 14.4712 6.11268 14.9122C6.67211 15.2569 7.14304 15.7279 7.48776 16.2873C7.92876 17.003 7.98 17.8741 7.98 18.7149V22.4H2.52C1.85165 22.4 1.21068 22.1345 0.738091 21.6619C0.265499 21.1893 0 20.5483 0 19.88L0 14.42ZM16.8 6.43998C16.8 6.66276 16.7115 6.87641 16.554 7.03395C16.3964 7.19148 16.1828 7.27998 15.96 7.27998C15.7372 7.27998 15.5236 7.19148 15.366 7.03395C15.2085 6.87641 15.12 6.66276 15.12 6.43998C15.12 6.21719 15.2085 6.00354 15.366 5.84601C15.5236 5.68848 15.7372 5.59998 15.96 5.59998C16.1828 5.59998 16.3964 5.68848 16.554 5.84601C16.7115 6.00354 16.8 6.21719 16.8 6.43998Z" fill="#1866FF"/>
</g>
<path d="M24.3129 21.0403C24.0307 21.0403 23.7888 20.8723 23.5872 20.5363C23.3856 20.2003 23.2848 19.5283 23.2848 18.5203C23.2848 17.593 23.352 16.4304 23.4864 15.0326C23.6342 13.6214 23.8493 12.0624 24.1315 10.3555C24.2793 9.576 24.5549 8.93088 24.9581 8.42016C25.3747 7.90944 25.9123 7.47936 26.5709 7.12992C27.2429 6.78048 28.0291 6.47136 28.9296 6.20256C29.8301 5.93376 30.7574 5.69184 31.7117 5.4768C32.6793 5.24832 33.5865 5.06688 34.4333 4.93248C35.2934 4.78464 35.999 4.71072 36.5501 4.71072C36.9398 4.71072 37.2355 4.79136 37.4371 4.95264C37.6387 5.11392 37.7395 5.28192 37.7395 5.45664C37.7395 5.61792 37.6925 5.75904 37.5984 5.88C37.5177 5.98752 37.3565 6.07488 37.1145 6.14208C36.9398 6.19584 36.5702 6.28992 36.0057 6.42432C35.4547 6.54528 34.776 6.69312 33.9696 6.86784C33.1766 7.04256 32.3366 7.23072 31.4496 7.43232C30.5625 7.62048 29.7024 7.81536 28.8691 8.01696C27.9149 8.28576 27.2227 8.62848 26.7926 9.04512C26.376 9.44832 26.1005 10.0195 25.9661 10.7587C25.9392 10.9469 25.8989 11.2224 25.8451 11.5853C26.2214 11.4374 26.6918 11.2762 27.2563 11.1014C27.8208 10.9267 28.3987 10.7587 28.9901 10.5974C29.5814 10.4362 30.1257 10.3085 30.623 10.2144C31.1203 10.1069 31.4899 10.0531 31.7318 10.0531C31.9065 10.0531 32.088 10.1606 32.2761 10.3757C32.4777 10.5907 32.5785 10.8125 32.5785 11.041C32.5785 11.1485 32.5449 11.256 32.4777 11.3635C32.4105 11.4576 32.2963 11.5315 32.135 11.5853C32.0409 11.6122 31.8057 11.6794 31.4294 11.7869C31.0665 11.881 30.623 12.0019 30.0989 12.1498C29.5881 12.2976 29.0505 12.4589 28.4861 12.6336C27.9216 12.7949 27.384 12.9494 26.8733 13.0973C26.376 13.2451 25.9593 13.3728 25.6233 13.4803C25.5561 14.1254 25.4822 14.7974 25.4016 15.4963C25.3209 16.1952 25.247 16.8605 25.1798 17.4922C25.1261 18.1104 25.079 18.6413 25.0387 19.0848C24.9984 19.5149 24.9782 19.7904 24.9782 19.9114C24.9782 20.664 24.7565 21.0403 24.3129 21.0403ZM39.6153 21.8064C38.5804 21.8064 37.7673 21.4704 37.176 20.7984C36.598 20.113 36.3091 19.1587 36.3091 17.9357C36.3091 17.183 36.4099 16.3027 36.6115 15.2947C36.8265 14.2733 37.0953 13.1981 37.4179 12.0691C37.7539 10.9267 38.1168 9.79776 38.5065 8.68224C38.8963 7.56672 39.2726 6.53184 39.6355 5.5776C40.0118 4.60992 40.3411 3.80352 40.6233 3.1584C40.7846 2.79552 41.0131 2.61408 41.3088 2.61408C41.712 2.61408 41.9136 2.86272 41.9136 3.36C41.9136 3.52128 41.8396 3.85056 41.6918 4.34784C41.544 4.84512 41.3491 5.46336 41.1072 6.20256C40.8652 6.92832 40.6032 7.73472 40.3209 8.62176C40.0387 9.5088 39.7497 10.4227 39.454 11.3635C39.1718 12.2909 38.9097 13.2115 38.6678 14.1254C38.4259 15.0259 38.231 15.8726 38.0832 16.6656C37.9353 17.4586 37.8614 18.1373 37.8614 18.7018C37.8614 19.0646 37.9555 19.3536 38.1436 19.5686C38.3452 19.7702 38.614 19.871 38.95 19.871C39.5683 19.871 40.1865 19.7501 40.8048 19.5082C41.4364 19.2528 42.0412 18.9437 42.6192 18.5808C43.1971 18.2045 43.7212 17.8349 44.1916 17.472C44.6755 17.0957 45.0854 16.7866 45.4214 16.5446C45.7574 16.2893 45.9926 16.1616 46.127 16.1616C46.4227 16.1616 46.5705 16.3229 46.5705 16.6454C46.5705 16.753 46.463 16.9546 46.248 17.2502C46.0329 17.5325 45.744 17.8685 45.3811 18.2582C45.0182 18.648 44.5948 19.0512 44.111 19.4678C43.6406 19.871 43.1433 20.2541 42.6192 20.617C42.1084 20.9664 41.591 21.2486 41.0668 21.4637C40.5561 21.6922 40.0723 21.8064 39.6153 21.8064ZM52.8808 12.311C52.8808 12.7411 52.7464 13.1645 52.4776 13.5811C52.2088 13.9843 51.8526 14.3741 51.4091 14.7504C50.9656 15.1133 50.475 15.456 49.9374 15.7786C49.3998 16.1011 48.8622 16.3834 48.3246 16.6253C47.787 16.8672 47.2964 17.0621 46.8529 17.2099C46.7454 17.7341 46.6916 18.1978 46.6916 18.601C46.6916 18.8563 46.7521 19.0378 46.8731 19.1453C46.994 19.2528 47.1822 19.3066 47.4376 19.3066C48.002 19.3066 48.6001 19.2058 49.2318 19.0042C49.8635 18.8026 50.5086 18.5405 51.1672 18.2179C51.8257 17.8954 52.4574 17.5526 53.0622 17.1898C53.667 16.8269 54.218 16.4842 54.7153 16.1616C55.226 15.839 55.6494 15.577 55.9854 15.3754C56.3214 15.1738 56.5432 15.073 56.6507 15.073C56.812 15.073 56.9329 15.1267 57.0136 15.2342C57.1076 15.3283 57.1547 15.4426 57.1547 15.577C57.1547 15.6845 56.9867 15.8928 56.6507 16.2019C56.3281 16.511 55.8913 16.8739 55.3403 17.2906C54.7892 17.6938 54.171 18.1104 53.4856 18.5405C52.8001 18.9706 52.0878 19.3738 51.3486 19.7501C50.6228 20.1264 49.9172 20.4288 49.2318 20.6573C48.5598 20.8858 47.955 21 47.4174 21C46.7185 21 46.1742 20.7379 45.7844 20.2138C45.3947 19.6896 45.1998 18.8765 45.1998 17.7744C45.1998 17.0352 45.2939 16.2893 45.482 15.5366C45.6836 14.784 45.9524 14.065 46.2884 13.3795C46.6379 12.6806 47.0209 12.0624 47.4376 11.5248C47.8676 10.9738 48.3179 10.5437 48.7883 10.2346C49.2587 9.912 49.7156 9.75072 50.1592 9.75072C51.0059 9.75072 51.6712 9.98592 52.155 10.4563C52.6388 10.9267 52.8808 11.545 52.8808 12.311ZM47.2763 15.6576C47.6929 15.4022 48.123 15.1334 48.5665 14.8512C49.01 14.569 49.42 14.28 49.7963 13.9843C50.1726 13.6886 50.475 13.3795 50.7035 13.057C50.9454 12.721 51.0664 12.3782 51.0664 12.0288C51.0664 11.5315 50.7976 11.2829 50.26 11.2829C49.924 11.2829 49.5678 11.4979 49.1915 11.928C48.8286 12.3446 48.4792 12.889 48.1432 13.561C47.8072 14.233 47.5182 14.9318 47.2763 15.6576ZM55.9262 20.2742C55.7246 20.2742 55.5767 20.2003 55.4827 20.0525C55.3886 19.9046 55.3415 19.7165 55.3415 19.488C55.3415 19.2998 55.4625 19.031 55.7044 18.6816C55.9598 18.3187 56.2891 17.8954 56.6923 17.4115C57.1089 16.9142 57.5659 16.3834 58.0631 15.8189C58.5604 15.2544 59.0644 14.6832 59.5751 14.1053C58.9569 13.057 58.4865 12.2304 58.1639 11.6256C57.8414 11.0074 57.6801 10.5235 57.6801 10.1741C57.6801 9.93216 57.7607 9.7104 57.922 9.5088C58.0833 9.29376 58.2446 9.18624 58.4059 9.18624C58.594 9.18624 58.7755 9.30048 58.9502 9.52896C59.1383 9.744 59.3668 10.1136 59.6356 10.6378C59.9044 11.1485 60.2673 11.8541 60.7243 12.7546C61.4635 11.8675 62.075 11.1418 62.5588 10.5773C63.0561 10.0128 63.4526 9.576 63.7483 9.26688C64.0574 8.95776 64.2993 8.74272 64.474 8.62176C64.6622 8.48736 64.8235 8.42016 64.9579 8.42016C65.1191 8.42016 65.2535 8.48736 65.3611 8.62176C65.4686 8.74272 65.5223 8.94432 65.5223 9.22656C65.5223 9.49536 65.3947 9.82464 65.1393 10.2144C64.8974 10.6042 64.5748 11.0275 64.1716 11.4845C63.7684 11.9414 63.3316 12.4118 62.8612 12.8957C62.4043 13.3661 61.9675 13.823 61.5508 14.2666C62.2228 15.4224 62.8679 16.4304 63.4862 17.2906C64.1044 18.1373 64.6017 18.8362 64.978 19.3872C65.3678 19.9382 65.5627 20.3414 65.5627 20.5968C65.5627 20.7715 65.5223 20.9059 65.4417 21C65.3611 21.0806 65.2065 21.121 64.978 21.121C64.8167 21.121 64.6286 21.0538 64.4135 20.9194C64.1985 20.785 63.923 20.5229 63.587 20.1331C63.2644 19.7434 62.8411 19.1789 62.3169 18.4397C61.8062 17.687 61.1745 16.7059 60.4219 15.4963C59.9515 16.0205 59.4811 16.5648 59.0107 17.1293C58.5537 17.6803 58.1169 18.1978 57.7003 18.6816C57.2971 19.152 56.9409 19.535 56.6318 19.8307C56.3227 20.1264 56.0875 20.2742 55.9262 20.2742ZM67.4506 13.944C67.0877 13.944 66.7652 13.8634 66.4829 13.7021C66.2141 13.5274 66.0797 13.3392 66.0797 13.1376C66.0797 13.0166 66.288 12.8822 66.7047 12.7344C67.1348 12.5731 67.6925 12.4186 68.378 12.2707C69.0634 12.1229 69.8093 12.0019 70.6157 11.9078C71.4356 11.8138 72.2352 11.7667 73.0148 11.7667C73.6868 11.7667 74.1504 11.8541 74.4058 12.0288C74.6612 12.1901 74.7888 12.3715 74.7888 12.5731C74.7888 12.7344 74.5536 12.9024 74.0832 13.0771C73.6263 13.2384 73.0282 13.3862 72.289 13.5206C71.5632 13.6416 70.7703 13.7424 69.9101 13.823C69.0634 13.9037 68.2436 13.944 67.4506 13.944ZM91.3416 7.83552C91.3416 8.70912 91.2879 9.63648 91.1803 10.6176C91.0728 11.5987 90.8981 12.5866 90.6562 13.5811C90.4143 14.5622 90.0984 15.4963 89.7087 16.3834C89.3323 17.257 88.8687 18.0432 88.3176 18.7421C87.7666 19.4275 87.1215 19.9718 86.3823 20.375C85.6565 20.7782 84.8232 20.9798 83.8824 20.9798C82.5922 20.9798 81.5707 20.5699 80.8181 19.7501C80.0655 18.9302 79.6891 17.7005 79.6891 16.0608C79.6891 15.1334 79.7832 14.2262 79.9714 13.3392C80.1595 12.4387 80.3813 11.6189 80.6367 10.8797C80.892 10.1405 81.1138 9.52896 81.3019 9.04512C81.2482 8.9376 81.2213 8.80992 81.2213 8.66208C81.2213 8.25888 81.3154 7.88256 81.5035 7.53312C81.6917 7.17024 81.9202 6.87456 82.189 6.64608C82.4712 6.4176 82.74 6.30336 82.9954 6.30336C83.197 6.30336 83.3583 6.37728 83.4792 6.52512C83.6136 6.67296 83.6808 6.90144 83.6808 7.21056C83.6808 7.54656 83.5666 8.00352 83.3381 8.58144C83.1231 9.15936 82.8744 9.8448 82.5922 10.6378C82.3099 11.4173 82.0546 12.2976 81.8261 13.2787C81.6111 14.2464 81.5035 15.288 81.5035 16.4035C81.5035 17.2637 81.732 17.9222 82.189 18.3792C82.6459 18.8227 83.3247 19.0445 84.2251 19.0445C84.9643 19.0445 85.6095 18.8093 86.1605 18.3389C86.7115 17.8685 87.1752 17.2301 87.5515 16.4237C87.9413 15.6038 88.2571 14.6765 88.4991 13.6416C88.7544 12.6067 88.9493 11.5248 89.0837 10.3958C89.2315 9.26688 89.3391 8.15808 89.4063 7.06944C89.4331 6.72 89.5339 6.46464 89.7087 6.30336C89.8968 6.12864 90.1253 6.04128 90.3941 6.04128C90.5957 6.04128 90.7637 6.0816 90.8981 6.16224C91.0459 6.22944 91.1535 6.39072 91.2207 6.64608C91.3013 6.90144 91.3416 7.29792 91.3416 7.83552ZM98.2036 9.38784C97.6257 9.38784 97.2359 9.3072 97.0343 9.14592C96.8461 8.98464 96.7521 8.83008 96.7521 8.68224C96.7521 8.4672 96.8596 8.27232 97.0746 8.0976C97.3031 7.92288 97.5786 7.80192 97.9012 7.73472C98.2909 7.65408 98.7613 7.57344 99.3124 7.4928C99.8769 7.39872 100.462 7.31808 101.066 7.25088C101.671 7.17024 102.262 7.10976 102.84 7.06944C103.418 7.02912 103.922 7.00896 104.352 7.00896C104.917 7.00896 105.347 7.11648 105.643 7.33152C105.952 7.53312 106.106 7.72128 106.106 7.896C106.106 7.90944 106.106 7.93632 106.106 7.97664C106.106 8.08416 106.086 8.17824 106.046 8.25888C106.006 8.33952 105.871 8.42016 105.643 8.5008C105.428 8.568 105.058 8.64192 104.534 8.72256C104.023 8.78976 103.297 8.86368 102.357 8.94432C102.168 8.95776 101.96 8.97792 101.732 9.0048C101.678 9.36768 101.597 9.8448 101.49 10.4362C101.382 11.0275 101.261 11.6861 101.127 12.4118C100.992 13.1376 100.851 13.8835 100.703 14.6496C100.556 15.4022 100.408 16.1213 100.26 16.8067C100.126 17.4922 100.005 18.097 99.897 18.6211C99.8029 19.1453 99.729 19.5418 99.6753 19.8106C100.374 19.7165 100.992 19.656 101.53 19.6291C102.081 19.5888 102.451 19.5686 102.639 19.5686C103.136 19.5686 103.385 19.7568 103.385 20.1331C103.385 20.2406 103.156 20.3952 102.699 20.5968C102.242 20.7984 101.658 21.0067 100.945 21.2218C100.233 21.4368 99.4938 21.6384 98.7277 21.8266C98.0961 21.9744 97.4711 22.0886 96.8529 22.1693C96.2481 22.2499 95.8113 22.2902 95.5425 22.2902C95.2468 22.2902 95.0385 22.2365 94.9175 22.129C94.7965 22.0349 94.7361 21.8938 94.7361 21.7056C94.7361 21.5174 94.7898 21.3293 94.8973 21.1411C95.0183 20.953 95.1796 20.8186 95.3812 20.7379C95.7441 20.6035 96.1473 20.4826 96.5908 20.375C97.0343 20.2541 97.4845 20.1466 97.9415 20.0525C97.9415 19.9853 97.9415 19.9046 97.9415 19.8106C97.9415 19.6224 97.9751 19.2662 98.0423 18.7421C98.1229 18.2179 98.2237 17.593 98.3447 16.8672C98.4657 16.128 98.6001 15.3619 98.7479 14.569C98.8957 13.7626 99.0369 12.9965 99.1713 12.2707C99.3057 11.5315 99.4266 10.8931 99.5341 10.3555C99.6417 9.80448 99.7223 9.43488 99.7761 9.24672C99.4401 9.28704 99.1377 9.32064 98.8689 9.34752C98.6001 9.3744 98.3783 9.38784 98.2036 9.38784Z" fill="black"/>
<rect x="112.76" y="7.04004" width="25.84" height="13.92" rx="1.96" fill="#E6F4FE"/>
<path d="M117.401 17V11.4336H119.322C120.639 11.4336 121.298 11.9432 121.298 12.9781C121.298 13.5974 120.929 14.013 120.326 14.1227C121.078 14.2246 121.533 14.7029 121.533 15.4242C121.533 16.4355 120.851 17 119.636 17H117.401ZM118.091 16.3258H119.636C120.388 16.3258 120.812 16.0043 120.812 15.4242C120.812 14.8362 120.388 14.5069 119.636 14.5069H118.091V16.3258ZM118.091 13.8326H119.322C120.13 13.8326 120.576 13.5269 120.576 12.9781C120.576 12.3979 120.161 12.1078 119.322 12.1078H118.091V13.8326ZM122.385 14.9224C122.385 13.5974 123.138 12.7507 124.29 12.7507C125.199 12.7507 126.023 13.3387 126.093 14.8283L126.101 15.1341H123.098C123.161 15.9651 123.584 16.4512 124.29 16.4512C124.729 16.4512 125.129 16.2003 125.317 15.7691L126.038 15.824C125.795 16.608 125.09 17.0941 124.29 17.0941C123.138 17.0941 122.385 16.2474 122.385 14.9224ZM123.114 14.5382H125.364C125.246 13.6758 124.784 13.3936 124.29 13.3936C123.639 13.3936 123.224 13.817 123.114 14.5382ZM127.27 11.904H127.944V12.8448H129.057V13.4406H127.944V15.8867C127.944 16.2317 128.109 16.4042 128.438 16.4042H129.042V17H128.438C127.685 17 127.27 16.6002 127.27 15.8867V13.4406H126.666V12.8448H127.27V11.904ZM129.79 14.0678C129.955 13.2603 130.605 12.7507 131.491 12.7507C132.565 12.7507 133.169 13.3779 133.169 14.4912V16.1533C133.169 16.3258 133.248 16.4042 133.42 16.4042H133.593V17H133.302C132.879 17 132.503 16.8667 132.503 16.365C132.33 16.7413 131.876 17.0941 131.217 17.0941C130.394 17.0941 129.72 16.655 129.72 15.9102C129.72 15.0478 130.362 14.8362 131.288 14.6558L132.495 14.4206C132.487 13.7307 132.158 13.3936 131.491 13.3936C130.974 13.3936 130.629 13.6523 130.504 14.1227L129.79 14.0678ZM130.425 15.9102C130.425 16.2317 130.7 16.4982 131.303 16.4982C131.977 16.4982 132.511 16.0278 132.511 15.0557V15.0165L131.538 15.189C130.927 15.2987 130.425 15.3301 130.425 15.9102Z" fill="#0258A9"/>
<defs>
<clipPath id="clip0_1_3277">
<rect width="16.8" height="16.8" fill="white" transform="translate(0 5.59998)"/>
</clipPath>
</defs>
</svg>
