<svg xmlns="http://www.w3.org/2000/svg" width="16" height="23" viewBox="0 0 16 23" fill="none">
  <g clip-path="url(#clip0_65_8103)">
    <mask id="mask0_65_8103" style="mask-type:luminance" maskUnits="userSpaceOnUse" x="0" y="0" width="16" height="23">
      <path d="M15.7927 0.5H0.859375V22.9H15.7927V0.5Z" fill="white"/>
    </mask>
    <g mask="url(#mask0_65_8103)">
      <path d="M4.5927 22.9003C6.6535 22.9003 8.32605 21.2277 8.32605 19.1669V15.4336H4.5927C2.53191 15.4336 0.859375 17.1061 0.859375 19.1669C0.859375 21.2277 2.53191 22.9003 4.5927 22.9003Z" fill="#0ACF83"/>
      <path d="M0.859375 11.7001C0.859375 9.63932 2.53191 7.9668 4.5927 7.9668H8.32605V15.4335H4.5927C2.53191 15.4335 0.859375 13.7609 0.859375 11.7001Z" fill="#A259FF"/>
      <path d="M0.859375 4.23332C0.859375 2.17253 2.53191 0.5 4.5927 0.5H8.32605V7.96668H4.5927C2.53191 7.96668 0.859375 6.29412 0.859375 4.23332Z" fill="#F24E1E"/>
      <path d="M8.32617 0.5H12.0595C14.1203 0.5 15.7928 2.17253 15.7928 4.23332C15.7928 6.29412 14.1203 7.96668 12.0595 7.96668H8.32617V0.5Z" fill="#FF7262"/>
      <path d="M15.7928 11.7001C15.7928 13.7609 14.1203 15.4335 12.0595 15.4335C9.99872 15.4335 8.32617 13.7609 8.32617 11.7001C8.32617 9.63932 9.99872 7.9668 12.0595 7.9668C14.1203 7.9668 15.7928 9.63932 15.7928 11.7001Z" fill="#1ABCFE"/>
    </g>
  </g>
  <defs>
    <clipPath id="clip0_65_8103">
      <rect width="15.12" height="22.4" fill="white" transform="translate(0.860352 0.5)"/>
    </clipPath>
  </defs>
</svg>
